<?xml version="1.0" encoding="utf-8"?>
<!-- Generator: Adobe Illustrator 25.2.3, SVG Export Plug-In . SVG Version: 6.00 Build 0)  -->
<svg version="1.1" id="Layer_1" xmlns="http://www.w3.org/2000/svg" xmlns:xlink="http://www.w3.org/1999/xlink" x="0px" y="0px"
	 viewBox="0 0 1920 760" style="enable-background:new 0 0 1920 760;" xml:space="preserve">
<style type="text/css">
	.st0{fill:#FFFFFF;}
	.st1{fill:#88B14B;}
	.st2{font-family:'ArialMT';}
	.st3{font-size:48.7411px;}
</style>
<g id="Layer_1_2_">
	<g>
		<path class="st0" d="M251.28,324.66l-3.97,17.78c-10.81-14.42-28.72-22.59-53.11-22.59c-61.16,0-98.41,54.43-98.41,104.66
			c0,45.66,31.72,81.11,74.38,81.11c20.91,0,36.05-7.81,47.7-19.23l-3,14.54h46.14l28.72-135.06
			C255.49,361.3,251.28,324.66,251.28,324.66 M234.7,413.09c-3.24,27.52-23.67,47.94-49.87,47.94c-23.31,0-39.89-16.34-39.89-41.58
			c0-30.28,21.63-55.51,50.35-55.51C220.64,364.07,238.31,383.77,234.7,413.09"/>
		<path class="st0" d="M400.76,319.85c-17.66,0-35.45,5.41-50.23,23.31l3.48-15.62c-2.16,7.09-11.66,25.35-51.43,26.92
			l-31.12,146.36h47.7l19.83-93.85c6.49-28.6,24.87-41.94,47.1-41.94c8.77,0,18.75,2.04,25.59,5.65l15.38-45.66
			C418.67,321.89,409.3,319.85,400.76,319.85"/>
		<path class="st0" d="M502.18,364.31c4.57,0,9.61,0.48,14.78,2.04c20.91,6.61,43.5,5.89,62.6-5.05h0.12
			c-14.42-26.56-39.89-41.1-75.1-41.1c-59.36,0-100.94,46.26-100.94,101.3c0,47.94,34.37,83.51,86.04,83.51
			c27.88,0,53.11-11.42,71.14-31.96l-0.24-0.24c-15.26-14.42-36.65-18.26-57.08-13.34c-3.97,0.96-7.81,1.44-12.02,1.44
			c-22.23,0-39.05-17.42-39.05-42.54C452.43,388.94,473.46,364.31,502.18,364.31"/>
		<path class="st0" d="M691.43,319.85c-17.06,0-34.01,4.93-48.06,19.71l19.59-93.12c0.72-3.6-3.97-5.89-6.25-2.88
			c-8.77,11.78-23.07,22.59-46.14,24.39L561.3,500.94c13.94,0,26.92-4.93,37.13-13.22s17.66-19.95,20.55-33.52l10.09-47.94
			c6.49-30.76,25.23-41.82,45.18-41.82s27.4,11.17,27.4,25.83c0,3.85-0.36,7.57-1.32,11.66l-21.27,98.89
			c13.94,0,26.8-4.81,37.01-13.1s17.66-19.83,20.55-33.4l12.14-56.24c1.44-6.61,1.92-13.22,1.92-19.11
			C750.67,344.48,728.2,319.85,691.43,319.85"/>
		<path class="st0" d="M783.36,337.87c-10.21,8.29-17.78,19.95-20.55,33.52l-27.52,129.54c13.94,0,26.92-4.93,37.13-13.22
			s17.66-19.95,20.55-33.52l27.52-129.53C806.55,324.66,793.57,329.58,783.36,337.87"/>
		<path class="st0" d="M964.32,480.62c-12.02-15.26-31.84-22.35-50.59-17.54c-5.53,1.44-11.42,2.04-17.42,2.04
			c-18.75,0-31.84-7.57-37.49-21.63h-48.79c6.25,36.53,35.33,62,82.19,62C922.38,505.5,945.09,497.57,964.32,480.62 M910.01,319.85
			c-72.1,0-101.3,63.93-101.3,108.39v0.24h169.43c3.85-9.13,6.97-24.87,6.97-36.77C985.23,347.85,954.47,319.85,910.01,319.85
			 M939.33,396.03h-77.98c6.73-18.14,20.55-35.21,46.02-35.21C927.67,360.82,940.77,372.84,939.33,396.03L939.33,396.03"/>
		<path class="st1" d="M827.34,243.19l-11.18-7.45c-47.46-30.04-90.24-35.09-142.75-36.05c-52.63-1.2-103.58,9.13-151.64,25.23
			c-48.3,15.62-93.97,37.49-137.82,62c-21.99,12.26-43.02,26.07-63.69,40.01c-10.57,6.37-21.99,12.26-34.37,13.7
			c-6.13,0.6-12.38,0.36-18.02-1.92c-5.53-2.16-14.18-10.21-16.7-15.02l-1.44,8.41c8.65,11.42,24.03,12.14,36.41,10.09
			c12.5-2.28,24.15-7.45,34.85-14.18c21.15-13.58,42.78-26.2,65.01-37.49c44.34-23.07,91.44-40.73,139.39-52.75
			c48.06-11.17,97.93-15.98,145.27-8.17c23.55,3.6,46.26,11.05,66.93,21.03c14.54,7.21,24.03,15.62,36.65,26.07
			c5.29,4.45,9.85,9.85,15.74,13.46c6.37,3.85,11.66,6.61,18.75,6.61c17.78,0,31.36-14.06,30.28-32.08
			C838.39,255.8,834.42,248.47,827.34,243.19"/>
	</g>
	<text transform="matrix(1 0 0 1 1812.593 290.6748)" class="st0 st2 st3">TM</text>
	<g>
		<path class="st1" d="M968.76,486.03L968.76,486.03c10.33-19.35,32.32-29.2,53.71-24.15c9.49,2.16,19.47,3.36,29.2,3.36
			c24.51,0,35.21-6.73,35.21-17.42c0-25.47-95.65-4.33-95.65-65.37c0-40.61,37.97-63.44,90.6-63.44c25.11,0,50.35,5.65,66.69,15.14
			l-0.24,0.6c-9.13,18.62-29.56,29.68-49.99,25.83c-7.57-1.44-14.9-1.92-21.87-1.92c-24.15,0-34.85,8.05-34.85,17.78
			c0,26.56,95.29,5.41,95.29,65.37c0,41.22-38.93,63.08-90.84,63.08C1013.95,504.78,983.78,496.73,968.76,486.03z"/>
		<path class="st0" d="M1453.37,321.65l-99.61,180.48l0,0c-29.92,0-55.63-21.39-61.04-50.83l-11.42-61.52l-62,112.35l0,0
			c-29.44,0-54.67-21.15-59.84-50.23l-14.66-83.39c-4.33-24.51,14.54-46.86,39.29-46.86l0,0l19.83,121.36l45.9-82.19
			c13.58-24.27,39.05-39.29,66.81-39.29l0,0l20.43,121.36l43.26-78.22C1394.86,338.11,1422.97,321.65,1453.37,321.65L1453.37,321.65
			z"/>
		<path class="st0" d="M1625.44,372.96l-15.98,80.39c-5.65,28.36-30.52,48.67-59.36,48.67l0,0l3.36-17.78
			c-14.42,13.1-33.16,20.43-55.39,20.43c-41.94,0-77.86-29.56-77.86-80.87c0-60.68,43.98-105.02,99.61-105.02
			c26.2,0,46.98,8.41,58.76,27.16l4.69-24.51l0,0C1610.42,321.65,1630.73,346.4,1625.44,372.96z M1567.29,402.16
			c0-24.51-15.14-39.89-41.22-39.89c-30.88,0-52.99,24.15-52.99,59.36c0,24.51,15.14,39.89,41.22,39.89
			C1545.18,461.52,1567.29,437.37,1567.29,402.16z"/>
		<path class="st0" d="M1824.19,399.76c0,60.68-43.98,105.02-99.97,105.02c-26.2,0-46.62-8.41-58.4-26.8l-17.79,89.28l0,0
			c-27.04,0-47.34-24.75-42.06-51.31l29.08-145.51c5.65-28.36,30.52-48.67,59.36-48.67l0,0l-3.72,17.79
			c14.42-13.1,33.16-20.43,55.39-20.43C1788.02,318.89,1824.19,348.45,1824.19,399.76z M1771.2,402.16
			c0-24.51-15.14-39.89-41.22-39.89c-30.52,0-52.63,24.15-52.63,59.36c0,24.51,14.78,39.89,40.97,39.89
			C1749.09,461.52,1771.2,437.37,1771.2,402.16z"/>
	</g>
</g>
</svg>
