<?xml version="1.0" encoding="utf-8"?>
<!-- Generator: Adobe Illustrator 25.2.3, SVG Export Plug-In . SVG Version: 6.00 Build 0)  -->
<svg version="1.1" id="Layer_1" xmlns="http://www.w3.org/2000/svg" xmlns:xlink="http://www.w3.org/1999/xlink" x="0px" y="0px"
	 viewBox="0 0 1920 760" style="enable-background:new 0 0 1920 760;" xml:space="preserve">
<style type="text/css">
	.st0{fill:#FFFFFF;}
	.st1{fill:#ED2024;}
</style>
<g>
	<path class="st0" d="M1837.88,237.95h-12.06v28.86h-6.38v-28.86h-12.06v-7.94h30.51L1837.88,237.95L1837.88,237.95z"/>
	<path class="st0" d="M1878,266.8h-6.38v-25.23l-10.32,25.23h-4.61l-10.32-25.23v25.23h-6.38V230h8.62l10.39,25.97l10.39-25.97h8.62
		L1878,266.8L1878,266.8z"/>
	<g>
		<path class="st0" d="M66.51,546.65c0,10.73-6.59,14.33-18.09,14.33c-11.36,0-19.02-3.6-19.02-19.04h8.41
			c0,7.75,3.88,8.59,11.08,8.59c6.68,0,9.21-0.82,9.21-5.48c0-4.85-2.53-5.27-13.88-5.27v-7.47c11.12,0,13.88-0.42,13.88-5.27
			c0-4.22-1.96-5.48-9.21-5.48c-7.99,0-11.08,1.24-11.08,8.59H29.4c0-15.45,7.66-19.06,19.02-19.06c11.5,0,18.09,3.6,18.09,14.33
			c0,5.06-1.91,8.38-5.04,10.6C64.59,538.27,66.51,541.59,66.51,546.65z"/>
		<path class="st0" d="M78.45,522.27v12.34h23.37v10.53H78.45v15.17h-8.41v-48.49h34.59v10.46H78.45V522.27z"/>
		<path class="st0" d="M133.02,549.98h-19.58l-3.51,10.32h-9.26l16.88-48.49h11.36l16.92,48.49h-9.3L133.02,549.98z M129.89,540.7
			l-6.64-19.67l-6.68,19.67H129.89z"/>
		<path class="st0" d="M179.11,522.27v12.34h23.37v10.53h-23.37v15.17h-8.41v-48.49h34.59v10.46h-26.18V522.27z"/>
		<path class="st0" d="M206.53,535.99c0-16.07,6.17-24.87,20.56-24.87c14.35,0,20.56,8.87,20.56,24.87
			c0,16.07-6.21,25.01-20.56,25.01C212.71,560.99,206.53,552.13,206.53,535.99z M239.25,535.99c0-9.84-3.37-14.4-12.15-14.4
			s-12.15,4.5-12.15,14.4c0,9.98,3.41,14.54,12.15,14.54C235.84,550.54,239.25,545.88,239.25,535.99z"/>
		<path class="st0" d="M281.81,545.88l6.03,14.4h-9.91l-5.28-12.95H259.1v12.95h-8.41v-48.49h25.71c7.43,0,12.53,7,12.53,17.8
			C288.91,537.51,286.2,543.33,281.81,545.88z M259.09,536.89h14.96c2.53,0,6.45,0,6.45-7.26c0-7.35-3.93-7.35-6.45-7.35h-14.96
			V536.89z"/>
		<path class="st0" d="M321.73,543.61c0,5.13,2.81,7.47,13.46,7.47c8.83,0,11.5-1.45,11.5-5.27c0-4.02-1.87-4.71-12.48-5.48
			c-14.25-0.96-19.91-4.29-19.91-15.17c0-10.66,7.33-14.07,19.58-14.07c12.34,0,19.82,4.57,19.82,16.56h-8.41
			c0-5.34-3.6-6.65-12.34-6.65c-8.28,0-10.24,1.17-10.24,4.78c0,3.74,1.96,4.43,11.5,5.27c12.9,1.03,20.89,2.08,20.89,14.33
			c0,12.95-8.28,15.59-20.37,15.59c-13.42,0-21.41-3.4-21.41-17.38h8.41V543.61z"/>
		<path class="st0" d="M386.91,549.98h-19.58l-3.51,10.32h-9.26l16.88-48.49h11.36l16.92,48.49h-9.3L386.91,549.98z M383.78,540.7
			l-6.64-19.67l-6.68,19.67H383.78z"/>
		<path class="st0" d="M410.12,522.27v12.34h23.37v10.53h-23.37v15.17h-8.41v-48.49h34.59v10.46h-26.18V522.27z"/>
		<path class="st0" d="M447.44,521.71v9.84h26.18v9h-26.18v9.84h26.18v9.91h-34.59v-48.49h34.59v9.91h-26.18V521.71z"/>
		<path class="st0" d="M516.08,522.27h-15.89v38.03h-8.41v-38.03h-15.89v-10.46h40.2L516.08,522.27L516.08,522.27z"/>
		<path class="st0" d="M517.79,511.81h10.14l12.58,22.1l12.58-22.1h10.14l-18.51,32.55v15.93h-8.41v-15.93L517.79,511.81z"/>
		<path class="st0" d="M619.97,549.98h-19.58l-3.51,10.32h-9.26l16.88-48.49h11.36l16.92,48.49h-9.3L619.97,549.98z M616.84,540.7
			l-6.64-19.67l-6.68,19.67H616.84z"/>
		<path class="st0" d="M676.92,511.81v48.49h-11.45l-22.3-36.37v36.37h-8.41v-48.49h11.4l22.34,36.44v-36.44H676.92z"/>
		<path class="st0" d="M720.27,536.05c0,16.49-7.44,24.24-15.89,24.24h-23.75v-48.49h23.75
			C712.84,511.81,720.27,519.58,720.27,536.05z M711.86,536.05c0-11.78-4.3-13.79-10.66-13.79h-12.15v27.56h12.15
			C707.56,549.84,711.86,547.83,711.86,536.05z"/>
		<path class="st1" d="M753.08,543.61c0,5.13,2.81,7.47,13.46,7.47c8.83,0,11.5-1.45,11.5-5.27c0-4.02-1.87-4.71-12.48-5.48
			c-14.25-0.96-19.91-4.29-19.91-15.17c0-10.66,7.34-14.07,19.58-14.07c12.34,0,19.82,4.57,19.82,16.56h-8.41
			c0-5.34-3.6-6.65-12.34-6.65c-8.27,0-10.24,1.17-10.24,4.78c0,3.74,1.97,4.43,11.5,5.27c12.9,1.03,20.89,2.08,20.89,14.33
			c0,12.95-8.27,15.59-20.37,15.59c-13.42,0-21.41-3.4-21.41-17.38h8.41V543.61z"/>
		<path class="st1" d="M797.88,521.71v9.84h26.17v9h-26.17v9.84h26.17v9.91h-34.59v-48.49h34.59v9.91h-26.17V521.71z"/>
		<path class="st1" d="M846.89,511.11c13.04,0,19.59,7.35,20.43,21.33h-8.55c-0.79-7.82-4.86-10.87-11.88-10.87
			c-8.55,0-12.15,4.5-12.15,14.4c0,9.98,3.65,14.54,12.15,14.54c6.97,0,11.08-3.12,11.88-11.01h8.55
			c-0.84,14.05-7.38,21.47-20.43,21.47c-14.4,0-20.56-8.87-20.56-25.01C826.33,519.91,832.5,511.11,846.89,511.11z"/>
		<path class="st1" d="M891.13,560.99c-14.4,0-20.56-8.1-20.56-25.01v-24.18h8.41v24.18c0,6.79,1.26,14.54,12.15,14.54
			c10.9,0,12.16-7.82,12.16-14.54v-24.18h8.41v24.18C911.7,552.81,905.49,560.99,891.13,560.99z"/>
		<path class="st1" d="M946.3,545.88l6.03,14.4h-9.91l-5.29-12.95h-13.55v12.95h-8.41v-48.49h25.71c7.43,0,12.53,7,12.53,17.8
			C953.41,537.51,950.7,543.33,946.3,545.88z M923.59,536.89h14.96c2.53,0,6.45,0,6.45-7.26c0-7.35-3.93-7.35-6.45-7.35h-14.96
			V536.89z"/>
		<path class="st1" d="M964.55,560.3h-8.41v-48.49h8.41V560.3z"/>
		<path class="st1" d="M1007.51,522.27h-15.89v38.03h-8.41v-38.03h-15.89v-10.46h40.2V522.27z"/>
		<path class="st1" d="M1009.21,511.81h10.14l12.58,22.1l12.58-22.1h10.14l-18.51,32.55v15.93h-8.42v-15.93L1009.21,511.81z"/>
	</g>
	<g>
		<g>
			<path class="st0" d="M132.53,303.12H91.02L29.4,480.21h5.35c17.45,0,33.41-14.57,41.26-37.68l0,0l11.46-33.91l24.42-71.89
				l33.26,98.47c9.32,27.59,28.36,45.01,49.18,45.01l0,0L132.53,303.12z"/>
			<path class="st0" d="M341.32,368.1c0-39.5-18.58-64.98-45.76-64.98H201.7v177.08l0,0c16.98,0,30.73-20.4,30.73-45.55v-1.8h49.48
				l0.62,1.51c11.61,28.46,32.41,45.84,54.85,45.84l0,0l-22.03-52.63C331.44,418.22,341.32,396.97,341.32,368.1z M287.06,394.69
				h-54.62v-53.41h54.62c9.18,0,23.51,0,23.51,26.82C310.58,394.69,296.24,394.69,287.06,394.69z"/>
			<path class="st0" d="M424.82,444.48c-31.05,0-44.38-16.68-44.38-53.1c0-36.18,13.16-52.63,44.38-52.63
				c16.03,0,27.84,4.33,35.15,14.57c10.79,15.12,24.33,25.15,39.18,25.15h0.31c-3.08-51.13-26.96-77.96-74.64-77.96
				c-52.55,0-75.11,32.18-75.11,90.85c0,58.92,22.56,91.33,75.11,91.33c47.67,0,71.56-27.06,74.64-78.43h-0.15
				c-14.94,0-28.57,10.13-39.38,25.4C452.58,440.05,440.74,444.48,424.82,444.48z"/>
			<path class="st0" d="M638.58,303.12v69.31h-97.3v-23.75c0-25.16-13.76-45.55-30.73-45.55l0,0v131.52
				c0,25.16,13.76,45.55,30.73,45.55l0,0V410.9h97.3v23.75c0,25.16,13.76,45.55,30.73,45.55l0,0V348.67
				C669.32,323.51,655.56,303.12,638.58,303.12L638.58,303.12z"/>
			<path class="st0" d="M683.01,303.12v131.52c0,25.16,13.76,45.55,30.73,45.55l0,0V348.67
				C713.74,323.51,699.99,303.12,683.01,303.12L683.01,303.12z"/>
			<path class="st0" d="M853.72,303.12L853.72,303.12H727.39v177.08h101.92c13.48,0,24.42-16.21,24.42-36.18l0,0h-95.61v-35.95
				h84.51c6.13,0,11.1-7.36,11.1-16.44l0,0c0-9.08-4.97-16.44-11.1-16.44h-84.51v-35.95h71.23
				C842.82,339.23,853.72,323.06,853.72,303.12z"/>
		</g>
		<g>
			<path class="st1" d="M1097.57,349.91l-15.47,61.32c-2.72,10.77-12.96,10.94-15.85,0.25l-28.85-107.1h-37.21l-28.73,106.91
				c-2.87,10.69-13.1,10.53-15.84-0.22l-15.61-61.49c-6.91-27.2-24.46-45.21-44.07-45.21l0,0l31.1,116.95
				c9.23,34.7,31.85,57.53,57.02,57.53l0,0l34.83-131.37l34.67,131.37l0,0c25.28,0,47.98-22.9,57.25-57.74l31.08-116.74l0,0
				C1122.14,304.38,1104.48,322.53,1097.57,349.91z"/>
			<path class="st1" d="M1213.58,304.38h-40.88l-60.72,174.48l0,0c20.4,0,39.06-17.06,48.21-44.09l8.97-26.47l24.05-70.8
				l35.19,104.24l0,0c7.71,22.76,23.43,37.13,40.61,37.13h5.46L1213.58,304.38z"/>
			<path class="st1" d="M1312,441.25v-92.04c0-24.77-13.55-44.83-30.25-44.83l0,0v174.48h95.77c14.01,0,25.37-16.84,25.37-37.6l0,0
				H1312V441.25z"/>
			<path class="st1" d="M1444.97,441.25V349.3c0-24.81-13.57-44.92-30.31-44.92l0,0v174.48h95.77c14.01,0,25.37-16.84,25.37-37.6
				l0,0h-90.83V441.25z"/>
			<path class="st1" d="M1547.58,424.17v54.68h124.48l0,0c0-19.69-10.77-35.64-24.05-35.64h-70.12V426
				c0-47.49,25.98-85.99,58.03-85.99h12.1c13.28,0,24.05-15.95,24.05-35.64l0,0h-43.65
				C1583.78,304.38,1547.58,358.02,1547.58,424.17z M1599.97,407.82h50.22c12.08,0,21.87-14.52,21.87-32.41l0,0h-50.22
				C1609.77,375.41,1599.97,389.93,1599.97,407.82L1599.97,407.82z"/>
			<path class="st1" d="M1680.34,304.38L1680.34,304.38c0,20.76,11.36,37.6,25.37,37.6h31.85v136.87l0,0
				c16.71,0,30.25-20.08,30.25-44.83v-92.04h57.23l0,0c0-20.76-11.36-37.6-25.37-37.6H1680.34z"/>
		</g>
	</g>
</g>
</svg>
