<?xml version="1.0" encoding="utf-8"?>
<!-- Generator: Adobe Illustrator 25.2.3, SVG Export Plug-In . SVG Version: 6.00 Build 0)  -->
<svg version="1.1" id="Layer_1" xmlns="http://www.w3.org/2000/svg" xmlns:xlink="http://www.w3.org/1999/xlink" x="0px" y="0px"
	 viewBox="0 0 1920 760" style="enable-background:new 0 0 1920 760;" xml:space="preserve">
<style type="text/css">
	.st0{fill:#FFFFFF;}
	.st1{fill:#14A701;}
	.st2{font-family:'ArialMT';}
	.st3{font-size:51.7979px;}
</style>
<g id="Layer_1_1_">
	<g>
		<path class="st0" d="M213.39,350.92l-4.3,19.53c-11.92-15.85-31.69-24.94-58.72-24.94c-67.57,0-108.72,60.07-108.72,115.48
			c0,50.37,35.01,89.56,82.06,89.56c23.1,0,39.8-8.6,52.7-21.25l-3.32,16.09h50.98l31.82-149.01
			C217.93,391.46,213.39,350.92,213.39,350.92 M194.96,448.71c-3.56,30.47-26.04,53.07-55.04,53.07
			c-25.68,0-43.98-18.06-43.98-45.94c0-33.41,23.96-61.3,55.65-61.3C179.48,394.41,199.01,416.28,194.96,448.71"/>
		<path class="st0" d="M378.37,345.64c-19.53,0-39.19,6.02-55.4,25.68l3.81-17.32c-2.46,7.86-12.9,28.01-56.88,29.73l-34.4,161.79
			h52.7l21.87-103.56c7.25-31.57,27.52-46.31,52.09-46.31c9.7,0,20.64,2.33,28.25,6.27l16.95-50.37
			C398.27,347.97,387.83,345.64,378.37,345.64"/>
		<path class="st0" d="M490.41,394.65c5.04,0,10.56,0.49,16.34,2.33c23.1,7.37,48.03,6.51,69.16-5.53h0.12
			c-15.97-29.36-44.1-45.45-82.92-45.45c-65.48,0-111.42,51.1-111.42,111.91c0,52.82,37.96,92.14,94.96,92.14
			c30.83,0,58.72-12.65,78.5-35.38l-0.25-0.25c-16.83-15.85-40.54-20.15-63.02-14.74c-4.3,1.11-8.6,1.6-13.27,1.6
			c-24.57,0-43.12-19.29-43.12-47.05C435.49,422.05,458.71,394.65,490.41,394.65"/>
		<path class="st0" d="M699.37,345.64c-18.92,0-37.47,5.41-53.07,21.74l21.62-102.95c0.86-3.93-4.3-6.51-6.88-3.19
			c-9.7,13.02-25.43,25.06-50.98,26.9L555.64,545.5c15.36,0,29.73-5.41,41.03-14.5s19.53-21.99,22.73-36.98l11.18-52.95
			c7.25-34.03,27.89-46.19,49.88-46.19s30.34,12.41,30.34,28.5c0,4.18-0.37,8.35-1.47,12.9l-23.46,109.21
			c15.36,0,29.61-5.28,40.91-14.37c11.3-9.09,19.41-21.87,22.73-36.85l13.39-62.16c1.6-7.37,2.21-14.5,2.21-21.13
			C764.85,372.79,740.03,345.64,699.37,345.64"/>
		<path class="st0" d="M800.96,365.54c-11.3,9.09-19.53,21.99-22.73,36.98l-30.47,142.99c15.36,0,29.73-5.41,41.03-14.5
			c11.3-9.09,19.53-21.99,22.73-36.98l30.47-142.99C826.51,350.92,812.26,356.33,800.96,365.54"/>
		<path class="st0" d="M1000.71,523.15c-13.27-16.83-35.13-24.57-55.9-19.41c-6.14,1.6-12.53,2.33-19.29,2.33
			c-20.64,0-35.26-8.48-41.4-23.96h-53.81c6.88,40.42,39.07,68.55,90.78,68.55C954.4,550.79,979.58,541.95,1000.71,523.15
			 M940.89,345.64c-79.6,0-111.91,70.51-111.91,119.78v0.24h187.1c4.18-10.07,7.74-27.39,7.74-40.66
			C1023.81,376.6,989.9,345.64,940.89,345.64 M973.19,429.79h-86.24c7.49-20.02,22.73-38.94,50.86-38.94
			C960.3,390.85,974.67,404.11,973.19,429.79L973.19,429.79"/>
		<path class="st1" d="M849.49,261l-12.41-8.23c-52.33-33.17-99.63-38.7-157.74-39.8c-58.23-1.35-114.37,10.07-167.44,27.89
			c-53.32,17.32-103.68,41.4-152.21,68.43c-24.2,13.51-47.42,28.87-70.39,44.22c-11.67,7.13-24.32,13.51-37.96,15.11
			c-6.76,0.61-13.64,0.37-19.9-2.09c-6.02-2.33-15.6-11.18-18.43-16.58l-1.6,9.34c9.58,12.65,26.53,13.39,40.17,11.18
			c13.88-2.46,26.66-8.23,38.45-15.6c23.34-14.99,47.17-28.87,71.74-41.4c49.02-25.43,100.98-44.96,153.93-58.23
			c53.07-12.41,108.23-17.69,160.44-8.97c26.04,4.05,50.98,12.28,73.95,23.22c15.97,7.99,26.53,17.32,40.42,28.87
			c5.9,4.91,10.93,10.93,17.32,14.86c7,4.3,12.9,7.25,20.64,7.25c19.66,0,34.64-15.48,33.41-35.5
			C861.77,274.88,857.35,266.77,849.49,261"/>
	</g>
	<text transform="matrix(1 0 0 1 1800.0249 325.6826)" class="st0 st2 st3">TM</text>
	<g>
		<path class="st0" d="M1532.39,463.57h-146.92c5.41,24.2,26.04,38.94,55.65,38.94c7.86,0,14.86-0.86,21.25-2.7
			c20.64-5.77,42.87,0.61,57.49,16.46l0,0c-18.06,20.52-45.08,31.45-80.1,31.45c-67.2,0-110.81-42.26-110.81-100
			c0-58.11,44.35-100,103.56-100c57,0,101.1,38.21,101.1,100.73C1533.5,452.76,1532.76,458.9,1532.39,463.57z M1384.73,430.77h95.7
			c-3.93-24.57-22.36-40.42-47.66-40.42C1407.09,390.35,1388.66,405.83,1384.73,430.77z"/>
		<path class="st0" d="M1648.98,500.55c8.6,22.6-7.86,47.05-31.94,47.17c-0.12,0-0.37,0-0.49,0c-45.82,0-72.6-23.46-72.6-69.65
			v-79.73l0,0c-16.58,0-29.97-13.39-29.97-29.97v-13.39h29.97v-47.3h8.97c26.17,0,47.3,21.13,47.3,47.3l0,0h5.04
			c23.96,0,43.36,19.41,43.36,43.36l0,0h-48.4v79.11c0,16.58,8.97,25.68,24.2,25.68c8.35,0,16.58-2.58,22.73-7.25L1648.98,500.55z"
			/>
		<path class="st0" d="M1839.14,433.97v58.11c0,29.11-23.59,52.7-52.7,52.7l0,0V520.7c-10.44,17.69-30.71,27.03-59.21,27.03
			c-45.45,0-72.6-25.31-72.6-58.84c0-34.27,24.2-58.11,83.41-58.11h44.72c0-24.2-14.5-38.33-44.72-38.33
			c-7.86,0-15.85,0.98-23.46,2.83c-21.01,5.16-42.75-4.91-52.7-24.2l0,0c21.25-15.11,52.7-23.46,83.78-23.46
			C1804.87,347.73,1839.14,375.12,1839.14,433.97z M1782.88,483.47v-19.9h-38.57c-26.41,0-34.64,9.7-34.64,22.73
			c0,14.13,11.92,23.46,31.82,23.46C1760.15,509.76,1776.37,501.16,1782.88,483.47z"/>
	</g>
	<g>
		<g>
			<path class="st1" d="M1321.47,340.11c-0.12-26.53-21.62-48.03-48.16-48.03l-35.99,60.81l0,0l-84.4,143.61
				c23.1,11.06,50.86,2.58,63.88-19.41l50-83.9l0.37,151.59l0,0c30.22,0,54.79-24.57,54.67-54.91L1321.47,340.11z"/>
			<path class="st1" d="M1172.57,436.67l12.53-21.25l0,0l-4.79-7.74l0,0l-12.04,21.87l0,0l-82.68-137.34l0,0
				c-26.66,0-48.4,21.62-48.4,48.4v149.38c0,30.34,24.57,54.91,54.91,54.91l0,0l0,0V396.5l0,0l52.95,87.1l0,0L1172.57,436.67
				L1172.57,436.67z"/>
		</g>
		<polygon class="st1" points="1172.33,437.04 1172.57,436.67 1168.27,429.42 1168.03,429.91 		"/>
	</g>
</g>
</svg>
