<?xml version="1.0" encoding="utf-8"?>
<!-- Generator: Adobe Illustrator 25.2.3, SVG Export Plug-In . SVG Version: 6.00 Build 0)  -->
<svg version="1.1" id="Layer_1" xmlns="http://www.w3.org/2000/svg" xmlns:xlink="http://www.w3.org/1999/xlink" x="0px" y="0px"
	 viewBox="0 0 1920 760" style="enable-background:new 0 0 1920 760;" xml:space="preserve">
<style type="text/css">
	.st0{fill:#FFFFFF;}
	.st1{fill:url(#SVGID_1_);}
	.st2{fill:url(#SVGID_2_);}
	.st3{fill:url(#SVGID_3_);}
	.st4{fill:url(#SVGID_4_);}
	.st5{fill:none;}
	.st6{fill:#010101;}
	.st7{fill:url(#SVGID_5_);}
	.st8{fill:url(#SVGID_6_);}
	.st9{fill:url(#SVGID_7_);}
	.st10{fill:url(#SVGID_8_);}
	.st11{fill:url(#SVGID_9_);}
	.st12{fill:url(#SVGID_10_);}
	.st13{fill:url(#SVGID_11_);}
	.st14{opacity:0.5;fill:url(#SVGID_12_);enable-background:new    ;}
	.st15{fill:url(#SVGID_13_);}
	.st16{fill:url(#SVGID_14_);}
	.st17{opacity:0.7;fill:url(#SVGID_15_);enable-background:new    ;}
	.st18{fill:url(#SVGID_16_);}
	.st19{opacity:0.7;fill:url(#SVGID_17_);enable-background:new    ;}
	.st20{fill:url(#SVGID_18_);}
	.st21{fill:url(#SVGID_19_);}
	.st22{fill:url(#SVGID_20_);}
	.st23{fill:url(#SVGID_21_);}
	.st24{fill:url(#SVGID_22_);}
	.st25{fill:url(#SVGID_23_);}
</style>
<g id="Layer_1_2_">
	<g>
		<g>
			<path class="st0" d="M36,318.31V187.76h32.4v130.55L36,318.31L36,318.31z M36,187.76v130.55h32.4V187.76H36z M67.24,188.44H37.02
				v129.28h30.22V188.44z"/>
			<path class="st0" d="M294.04,262.53c5.37,5.48,8.43,11.73,8.43,18.48c0,6.75-3.05,12.99-8.43,18.48
				c-11.04,11.23-31.82,18.82-55.79,18.82h-69.74c-23.83,0-44.75-7.6-55.79-18.82c-5.08-5.15-8.13-11.14-8.43-17.55h32.26
				c0.87,9.79,14.82,17.55,31.82,17.55h69.89c17.58,0,31.82-8.27,31.82-18.48s-14.24-18.48-31.82-18.48h-69.89
				c-18.02,0-34.44-4.31-46.06-11.31c-3.78-2.28-6.98-4.72-9.74-7.51c-5.37-5.48-8.43-11.73-8.43-18.48
				c0-6.75,3.05-12.99,8.43-18.48c11.04-11.23,31.82-18.82,55.79-18.82h68.15c0.58,0,1.17,0,1.6,0s1.17,0,1.6,0
				c23.24,0.34,43.3,7.85,54.19,18.74l0,0c5.08,5.15,8.13,11.14,8.43,17.47h-32.4c-0.87-9.54-14.24-17.13-30.66-17.47h-71.05
				c-17.58,0-31.82,8.27-31.82,18.48c0,9.54,12.65,17.47,28.63,18.39c1.01,0,2.18-0.08,3.19-0.08c1.89,0,3.78,0.08,5.52,0.17h64.22
				C262.23,243.8,283,251.31,294.04,262.53z"/>
			<path class="st0" d="M513,299.49v18.82H338.51V187.09h32.4v112.49h142.1v-0.08H513z"/>
			<path class="st0" d="M626.63,221.18l21.21,22.53L576.8,318.4h-42.71L626.63,221.18z M783.11,318.31H740.4l-81.81-85.91
				l-21.36-22.45l21.36-22.36l0,0l21.36,22.45L783.11,318.31z"/>
			<path class="st0" d="M982.31,188.02v129.7l-32.4-18.82l-113.33-65.82l0,0l-32.4-18.82v-26.58l145.73,84.64v-84.31H982.31z
				 M804.33,227.59l32.4,18.82v71.9h-32.4V227.59z"/>
			<path class="st0" d="M1220.16,253.42c0,3.29-0.44,6.41-1.17,9.62c-7.26,28.94-47.37,51.73-97.64,55.27H1018.2V216.29h32.4v83.2
				h68.58c33.27-2.79,60-17.55,66.84-36.54c1.17-3.12,1.74-6.33,1.74-9.62c0-3.12-0.58-6.24-1.6-9.2
				c-3.92-11.31-14.97-21.18-30.22-27.93c-12.65-5.57-28.04-8.95-44.75-9.36h-92.99v-18.82h90.67l0,0
				c56.23,0.34,102.43,24.64,110.13,56.12C1219.87,247.26,1220.16,250.29,1220.16,253.42z"/>
			<path class="st0" d="M1519.61,187.93c62.04,0,112.31,29.2,112.17,65.15c0,36.03-50.27,65.15-112.17,65.15
				c-62.04,0-112.17-29.2-112.17-65.15C1407.44,217.13,1457.72,187.93,1519.61,187.93z M1439.7,253.16
				c0,25.57,35.89,46.41,79.91,46.41s79.91-20.84,79.91-46.41s-35.89-46.41-79.91-46.41S1439.7,227.51,1439.7,253.16z"/>
			<path class="st0" d="M1667.68,206.84v-18.82H1866v18.82L1667.68,206.84L1667.68,206.84z M1699.92,239.07h144.28v18.82h-144.28
				v60.42h-32.4V216.29h32.4V239.07z"/>
		</g>
		
			<linearGradient id="SVGID_1_" gradientUnits="userSpaceOnUse" x1="440.6588" y1="168.4194" x2="826.983" y2="168.4194" gradientTransform="matrix(1 0 0 1 0 322)">
			<stop  offset="0" style="stop-color:#0F8C44"/>
			<stop  offset="0.0311" style="stop-color:#419643"/>
			<stop  offset="0.0815" style="stop-color:#68A541"/>
			<stop  offset="0.1359" style="stop-color:#83B33E"/>
			<stop  offset="0.1948" style="stop-color:#98BF3A"/>
			<stop  offset="0.2605" style="stop-color:#A7C937"/>
			<stop  offset="0.3383" style="stop-color:#B1D035"/>
			<stop  offset="0.4592" style="stop-color:#B4D334"/>
			<stop  offset="0.5495" style="stop-color:#AFCF35"/>
			<stop  offset="0.6446" style="stop-color:#A2C539"/>
			<stop  offset="0.7421" style="stop-color:#8CB83C"/>
			<stop  offset="0.8411" style="stop-color:#6FA940"/>
			<stop  offset="0.9404" style="stop-color:#449743"/>
			<stop  offset="1" style="stop-color:#0F8C44"/>
		</linearGradient>
		<path class="st1" d="M620.38,504.38c-2.62,0.34-5.23,0.59-7.85,0.84c-0.87,0.08-1.89,0.17-3.05,0.25
			c-0.44,0.08-1.01,0.08-1.45,0.17h-0.14c-1.31,0.08-2.62,0.25-3.78,0.34c-0.58,0.08-1.17,0.08-1.74,0.17
			c-1.31,0.08-2.76,0.17-4.07,0.25c-1.6,0.08-2.91,0.17-4.22,0.25l-0.73,0.08h-0.87c-1.31,0.08-2.62,0.08-3.92,0.17
			c-0.29,0-0.73,0-1.17,0c-1.01,0-2.04,0.08-3.05,0.08h-0.13h-1.01h-1.01h-0.14h-0.14c-1.31,0-2.62,0-3.92,0h-36.62v99.83H440.66
			l15.84-149.11h137.31c-0.29,0,14.67-1.77,28.63-5.15c0.44-0.08,0.87-0.17,1.17-0.34c13.08-3.29,24.84-7.93,35.16-13.84
			c7.85-4.47,14.53-9.54,19.76-15.11h-56.09h15.84H456.35v-49.28h335.92l-14.82,8.6c0.29,2.79,0.44,5.48,0.44,8.19
			c0,8.52-1.6,17.04-4.8,25.23c-8.29,21.77-27.32,41.69-54.78,57.47c-2.62,1.52-5.23,2.87-7.7,4.13c-0.87,0.42-1.74,0.93-2.62,1.35
			c-0.14,0.08-0.29,0.17-0.44,0.25c-1.17,0.51-2.18,1.1-3.35,1.6c-0.87,0.42-1.74,0.76-2.47,1.18c-0.44,0.25-0.87,0.42-1.45,0.68
			l-0.44,0.17c-0.58,0.34-1.31,0.59-2.04,0.93l114.35,108.94l14.82,14.09h-157.5"/>
		
			<linearGradient id="SVGID_2_" gradientUnits="userSpaceOnUse" x1="1506.3969" y1="167.9924" x2="1863.5359" y2="167.9924" gradientTransform="matrix(1 0 0 1 0 322)">
			<stop  offset="0" style="stop-color:#0F8C44"/>
			<stop  offset="0.0311" style="stop-color:#419643"/>
			<stop  offset="0.0815" style="stop-color:#68A541"/>
			<stop  offset="0.1359" style="stop-color:#83B33E"/>
			<stop  offset="0.1948" style="stop-color:#98BF3A"/>
			<stop  offset="0.2605" style="stop-color:#A7C937"/>
			<stop  offset="0.3383" style="stop-color:#B1D035"/>
			<stop  offset="0.4592" style="stop-color:#B4D334"/>
			<stop  offset="0.5495" style="stop-color:#AFCF35"/>
			<stop  offset="0.6446" style="stop-color:#A2C539"/>
			<stop  offset="0.7421" style="stop-color:#8CB83C"/>
			<stop  offset="0.8411" style="stop-color:#6FA940"/>
			<stop  offset="0.9404" style="stop-color:#449743"/>
			<stop  offset="1" style="stop-color:#0F8C44"/>
		</linearGradient>
		<path class="st2" d="M1842.32,374.01v49.28H1506.4l21.07-40.09l-21.07-9.28h335.92V374.01z M1570.32,556.79h293.21l-21.21,49.28
			H1506.4l21.07-40.09v-9.28v-99.41l63.79,0.34h236.54v49.28h-236.54L1570.32,556.79z"/>
		
			<linearGradient id="SVGID_3_" gradientUnits="userSpaceOnUse" x1="863.1092" y1="1208.6882" x2="1095.1692" y2="1208.6882" gradientTransform="matrix(4.489700e-11 1 -1 4.489700e-11 2645.9856 -489.1026)">
			<stop  offset="0" style="stop-color:#0F8C44"/>
			<stop  offset="0.0311" style="stop-color:#419643"/>
			<stop  offset="0.0815" style="stop-color:#68A541"/>
			<stop  offset="0.1359" style="stop-color:#83B33E"/>
			<stop  offset="0.1948" style="stop-color:#98BF3A"/>
			<stop  offset="0.2605" style="stop-color:#A7C937"/>
			<stop  offset="0.3383" style="stop-color:#B1D035"/>
			<stop  offset="0.4592" style="stop-color:#B4D334"/>
			<stop  offset="0.5495" style="stop-color:#AFCF35"/>
			<stop  offset="0.6446" style="stop-color:#A2C539"/>
			<stop  offset="0.7421" style="stop-color:#8CB83C"/>
			<stop  offset="0.8411" style="stop-color:#6FA940"/>
			<stop  offset="0.9404" style="stop-color:#449743"/>
			<stop  offset="1" style="stop-color:#0F8C44"/>
		</linearGradient>
		<path class="st3" d="M1469.05,606.07h-72.51l-4.36-231.98l63.35-0.08l26.88,14.26L1469.05,606.07z"/>
		<g>
			<g>
				
					<radialGradient id="SVGID_4_" cx="163.1672" cy="316.1731" r="5.8229" gradientTransform="matrix(1 0 0 0.5808 0 405.4)" gradientUnits="userSpaceOnUse">
					<stop  offset="0" style="stop-color:#56C5CD"/>
					<stop  offset="1" style="stop-color:#6F2A81"/>
				</radialGradient>
				<path class="st4" d="M170.4,586.74c-4.8,1.69-9.59,3.2-14.38,4.64C160.81,589.95,165.61,588.43,170.4,586.74z"/>
				<path class="st5" d="M67.09,605.9c-1.6,0.08-3.19,0.17-4.64,0.25C64.04,606.07,65.5,605.98,67.09,605.9z"/>
				<path class="st5" d="M111.12,601.17c-2.04,0.34-4.07,0.59-6.1,0.93C106.9,601.77,108.94,601.51,111.12,601.17z"/>
				<path class="st5" d="M118.24,599.99c-2.18,0.34-4.22,0.76-6.39,1.01C114.02,600.67,116.2,600.33,118.24,599.99z"/>
				<path class="st5" d="M62.31,606.15c-1.45,0.08-3.05,0.17-4.36,0.17C59.25,606.32,60.7,606.24,62.31,606.15z"/>
				<path class="st5" d="M104,602.19c-2.04,0.25-4.07,0.59-5.95,0.76C99.93,602.78,101.97,602.53,104,602.19z"/>
				<path class="st5" d="M72.47,605.56c-1.74,0.08-3.35,0.25-4.94,0.34C69.13,605.81,70.73,605.65,72.47,605.56z"/>
				<path class="st5" d="M78.14,605.05c-1.74,0.17-3.49,0.25-5.23,0.42C74.65,605.4,76.39,605.22,78.14,605.05z"/>
				<path class="st5" d="M97.17,603.12c-2.04,0.25-3.92,0.51-5.81,0.68C93.24,603.62,95.14,603.37,97.17,603.12z"/>
				<path class="st5" d="M125.64,598.65c-2.18,0.42-4.36,0.84-6.54,1.18C121.29,599.4,123.47,599.06,125.64,598.65z"/>
				<path class="st5" d="M90.49,603.88c-1.89,0.25-3.78,0.42-5.67,0.59C86.71,604.3,88.6,604.13,90.49,603.88z"/>
				<path class="st5" d="M148.32,593.5c-2.32,0.59-4.64,1.18-6.98,1.77C143.66,594.68,145.99,594.09,148.32,593.5z"/>
				<path class="st5" d="M57.79,606.41c-1.45,0.08-2.76,0.08-4.07,0.17C55.03,606.49,56.34,606.49,57.79,606.41z"/>
				<path class="st5" d="M140.76,595.35c-2.32,0.51-4.5,1.01-6.82,1.52C136.11,596.45,138.43,595.94,140.76,595.35z"/>
				<path class="st5" d="M84.24,604.55c-1.89,0.17-3.63,0.34-5.52,0.51C80.46,604.89,82.35,604.72,84.24,604.55z"/>
				<path class="st5" d="M53.73,606.57c-1.31,0.08-2.47,0.08-3.63,0.08C51.26,606.66,52.42,606.57,53.73,606.57z"/>
				<path class="st5" d="M133.2,597.04c-2.18,0.51-4.36,0.93-6.68,1.35C128.7,597.97,130.88,597.54,133.2,597.04z"/>
				<path class="st5" d="M41.67,606.74c0.58,0,1.31,0,2.32,0C42.98,606.74,42.25,606.74,41.67,606.74z"/>
				<path class="st5" d="M41.67,606.74L41.67,606.74c0.58,0,1.31,0,2.32,0h-3.05h0.14l0,0C41.23,606.74,41.37,606.74,41.67,606.74z"
					/>
				<path class="st5" d="M148.46,593.41c1.17-0.34,2.47-0.68,3.63-1.01C150.78,592.82,149.63,593.16,148.46,593.41L148.46,593.41z"
					/>
				<path class="st6" d="M119.26,599.82c-0.29,0.08-0.58,0.08-0.87,0.17C118.53,599.91,118.82,599.82,119.26,599.82z"/>
				<path class="st6" d="M53.73,606.57L53.73,606.57L53.73,606.57z"/>
				<path class="st6" d="M57.94,606.41C57.79,606.41,57.79,606.41,57.94,606.41C57.79,606.41,57.79,606.41,57.94,606.41z"/>
				<path class="st6" d="M126.52,598.47c-0.29,0.08-0.58,0.08-0.87,0.17C125.94,598.56,126.23,598.47,126.52,598.47z"/>
				<path class="st6" d="M84.82,604.46c-0.29,0-0.44,0.08-0.73,0.08C84.38,604.55,84.68,604.46,84.82,604.46z"/>
				<path class="st6" d="M148.32,593.5L148.32,593.5L148.32,593.5L148.32,593.5z"/>
				<path class="st6" d="M133.93,596.87c-0.29,0.08-0.58,0.08-0.73,0.17C133.35,597.04,133.64,596.96,133.93,596.87z"/>
				<path class="st6" d="M141.34,595.18c-0.14,0.08-0.44,0.08-0.58,0.17C140.91,595.35,141.05,595.26,141.34,595.18z"/>
				<path class="st6" d="M78.72,605.05c-0.14,0-0.44,0-0.58,0.08C78.29,605.05,78.57,605.05,78.72,605.05z"/>
				<path class="st6" d="M97.9,603.03c-0.29,0-0.58,0.08-0.87,0.08C97.46,603.03,97.75,603.03,97.9,603.03z"/>
				<path class="st6" d="M72.9,605.48c-0.14,0-0.29,0-0.44,0C72.62,605.56,72.76,605.48,72.9,605.48z"/>
				<path class="st6" d="M62.45,606.15c-0.14,0-0.14,0-0.29,0C62.31,606.15,62.45,606.15,62.45,606.15z"/>
				<path class="st6" d="M91.36,603.79c-0.29,0-0.58,0.08-0.73,0.08C90.78,603.88,91.06,603.79,91.36,603.79z"/>
				<path class="st6" d="M112,601.01c-0.29,0.08-0.58,0.08-0.87,0.17C111.41,601.09,111.7,601.09,112,601.01z"/>
				<path class="st6" d="M104.88,602.1c-0.29,0-0.58,0.08-0.87,0.08C104.29,602.19,104.58,602.1,104.88,602.1z"/>
				<path class="st6" d="M67.53,605.9c-0.14,0-0.29,0-0.29,0S67.39,605.9,67.53,605.9z"/>
				
					<radialGradient id="SVGID_5_" cx="387.2913" cy="132.642" r="357.0544" gradientTransform="matrix(1 0 0 0.5808 0 405.4)" gradientUnits="userSpaceOnUse">
					<stop  offset="0" style="stop-color:#B4D334"/>
					<stop  offset="1" style="stop-color:#0F8C44"/>
				</radialGradient>
				<path class="st7" d="M355.65,479.49c6.39-1.01,13.08-1.77,20.2-2.28l-6.25-7.93c0,0-40.68,0.08-77.29,21.77
					c-6.39,3.71-12.65,8.19-18.6,13.42v0.08c-10.31,9.03-19.47,20.42-26.3,34.68c0,0,8.13-14.35,29.21-29.37l5.81,10.63l27.45,49.87
					l20.05,36.54h100.25L355.65,479.49z"/>
				
					<radialGradient id="SVGID_6_" cx="281.8433" cy="129.0743" r="380.8503" gradientTransform="matrix(1 0 0 0.5808 0 405.4)" gradientUnits="userSpaceOnUse">
					<stop  offset="0" style="stop-color:#B4D334"/>
					<stop  offset="1" style="stop-color:#0F8C44"/>
				</radialGradient>
				<path class="st8" d="M170.4,514.17c-38.65,63.21-94.01,84.98-129.46,92.49v0.08c0,0,165.35,2.28,202.68-76.12
					c33.27-69.7,120.16-68.69,120.16-68.69l-36.47-45.99C258.59,435.35,199.9,466.07,170.4,514.17z"/>
				
					<radialGradient id="SVGID_7_" cx="112.129" cy="200.8676" r="374.3007" gradientTransform="matrix(1 0 0 0.5808 0 405.4)" gradientUnits="userSpaceOnUse">
					<stop  offset="0" style="stop-color:#B4D334"/>
					<stop  offset="1" style="stop-color:#0F8C44"/>
				</radialGradient>
				<path class="st9" d="M177.23,374.01L41.09,606.66c35.45-7.51,90.67-29.37,129.46-92.49c29.5-48.1,88.19-78.82,156.92-98.14
					l-33.41-41.94H177.23L177.23,374.01L177.23,374.01z"/>
			</g>
		</g>
		<g>
			<g>
				<g>
					<g>
						<g>
							
								<linearGradient id="SVGID_8_" gradientUnits="userSpaceOnUse" x1="1267.3882" y1="123.5223" x2="1367.6403" y2="123.5223" gradientTransform="matrix(1 0 0 1 0 322)">
								<stop  offset="0" style="stop-color:#B4D334"/>
								<stop  offset="1" style="stop-color:#0F8C44"/>
							</linearGradient>
							<path class="st10" d="M1367.64,432.23v84.81c-18.46-21.27-100.25-35.61-100.25-35.61V374.01
								C1322.74,374.09,1367.64,400.08,1367.64,432.23z"/>
						</g>
					</g>
					<g>
						<g>
							
								<linearGradient id="SVGID_9_" gradientUnits="userSpaceOnUse" x1="1084.4581" y1="213.1512" x2="1184.7102" y2="213.1512" gradientTransform="matrix(1 0 0 1 0 322)">
								<stop  offset="0" style="stop-color:#B4D334"/>
								<stop  offset="1" style="stop-color:#0F8C44"/>
							</linearGradient>
							<path class="st11" d="M1084.46,549.28v-84.81c18.46,21.27,100.25,35.61,100.25,35.61v105.65
								C1129.79,607.76,1084.46,581.59,1084.46,549.28z"/>
						</g>
					</g>
				</g>
				<g>
					<g>
						
							<radialGradient id="SVGID_10_" cx="1229.2334" cy="145.5133" r="140.0811" gradientTransform="matrix(1 0 0 0.5808 0 405.4)" gradientUnits="userSpaceOnUse">
							<stop  offset="0" style="stop-color:#B4D334"/>
							<stop  offset="1" style="stop-color:#0F8C44"/>
						</radialGradient>
						<path class="st12" d="M1374.17,512.31v35.27c0,7.34-2.32,14.35-6.54,20.76c-16.56-28.35-62.18-48.77-116.39-49.37
							c-0.73,0-1.45-0.08-2.18-0.08h-64.66c-53.61,0-97.35-24.47-100.11-55.19v-31.47c0-7.34,2.32-14.26,6.54-20.76
							c6.25,10.72,16.56,20.25,30.08,28.1c22.66,13.16,53.91,21.27,88.49,21.27h65.09C1326.08,460.84,1368.51,483.37,1374.17,512.31
							z"/>
						
							<linearGradient id="SVGID_11_" gradientUnits="userSpaceOnUse" x1="1084.2959" y1="167.9129" x2="1374.1708" y2="167.9129" gradientTransform="matrix(1 0 0 1 0 322)">
							<stop  offset="0" style="stop-color:#0F8C44"/>
							<stop  offset="0.0311" style="stop-color:#419643"/>
							<stop  offset="0.0815" style="stop-color:#68A541"/>
							<stop  offset="0.1359" style="stop-color:#83B33E"/>
							<stop  offset="0.1948" style="stop-color:#98BF3A"/>
							<stop  offset="0.2605" style="stop-color:#A7C937"/>
							<stop  offset="0.3383" style="stop-color:#B1D035"/>
							<stop  offset="0.4592" style="stop-color:#B4D334"/>
							<stop  offset="0.5495" style="stop-color:#AFCF35"/>
							<stop  offset="0.6446" style="stop-color:#A2C539"/>
							<stop  offset="0.7421" style="stop-color:#8CB83C"/>
							<stop  offset="0.8411" style="stop-color:#6FA940"/>
							<stop  offset="0.9404" style="stop-color:#449743"/>
							<stop  offset="1" style="stop-color:#0F8C44"/>
						</linearGradient>
						<path class="st13" d="M1374.17,512.31v35.27c0,7.34-2.32,14.35-6.54,20.76c-16.56-28.35-62.18-48.77-116.39-49.37
							c-0.73,0-1.45-0.08-2.18-0.08h-64.66c-53.61,0-97.35-24.47-100.11-55.19v-31.47c0-7.34,2.32-14.26,6.54-20.76
							c6.25,10.72,16.56,20.25,30.08,28.1c22.66,13.16,53.91,21.27,88.49,21.27h65.09C1326.08,460.84,1368.51,483.37,1374.17,512.31
							z"/>
						<g>
							
								<radialGradient id="SVGID_12_" cx="1232.4302" cy="103.0791" r="119.7289" gradientTransform="matrix(1 0 0 0.5808 0 405.4)" gradientUnits="userSpaceOnUse">
								<stop  offset="0" style="stop-color:#B4D334"/>
								<stop  offset="1" style="stop-color:#0F8C44"/>
							</radialGradient>
							<path class="st14" d="M1374.17,512.31v6.75c-5.81-29.45-48.82-52.24-100.98-52.24h-66.11c-35.02,0-66.54-8.44-89.8-21.6
								c-26.45-15.02-27.46-31.98-26.3-33.75c6.25,10.72,16.56,20.25,30.08,28.1c22.66,13.16,53.91,21.27,88.49,21.27h65.09
								C1326.08,460.84,1368.51,483.37,1374.17,512.31z"/>
						</g>
						
							<radialGradient id="SVGID_13_" cx="1309.4471" cy="270.5292" r="66.9471" gradientTransform="matrix(1 0 0 0.5808 0 405.4)" gradientUnits="userSpaceOnUse">
							<stop  offset="0" style="stop-color:#B4D334"/>
							<stop  offset="1" style="stop-color:#0F8C44"/>
						</radialGradient>
						<path class="st15" d="M1367.64,568.43c-5.95,9.03-15.69,17.04-28.19,23.29c-17.58,8.86-40.39,14.18-65.53,14.18v-72.4
							c0-7.6-10.03-13.75-22.66-14.35C1305.45,519.57,1351.07,540.08,1367.64,568.43z"/>
					</g>
				</g>
				<g>
					
						<linearGradient id="SVGID_14_" gradientUnits="userSpaceOnUse" x1="1090.9888" y1="95.4225" x2="1209.5552" y2="95.4225" gradientTransform="matrix(1 0 0 1 0 322)">
						<stop  offset="0" style="stop-color:#B4D334"/>
						<stop  offset="1" style="stop-color:#0F8C44"/>
					</linearGradient>
					<path class="st16" d="M1209.56,460.84c-34.58,0-65.82-8.1-88.49-21.27c-13.51-7.85-23.83-17.39-30.08-28.1
						c5.95-9.03,15.69-17.04,28.04-23.29c17.58-8.86,40.53-14.18,65.67-14.18v72.4C1184.71,454.34,1195.75,460.84,1209.56,460.84z"
						/>
					
						<radialGradient id="SVGID_15_" cx="1150.272" cy="45.7632" r="54.6973" gradientTransform="matrix(1 0 0 0.5808 0 405.4)" gradientUnits="userSpaceOnUse">
						<stop  offset="0" style="stop-color:#B4D334"/>
						<stop  offset="1" style="stop-color:#0F8C44"/>
					</radialGradient>
					<path class="st17" d="M1209.56,460.84c-34.58,0-65.82-8.1-88.49-21.27c-13.51-7.85-23.83-17.39-30.08-28.1
						c1.89-2.87,4.22-5.65,6.82-8.35c5.23,10.55,16.56,23.38,27.6,31.22c18.89,13.5,46.06,23.12,77.73,25.99l0,0
						C1205.19,460.67,1207.37,460.84,1209.56,460.84z"/>
				</g>
				<g>
					
						<linearGradient id="SVGID_16_" gradientUnits="userSpaceOnUse" x1="1249.0739" y1="240.4799" x2="1367.6403" y2="240.4799" gradientTransform="matrix(1 0 0 1 0 322)">
						<stop  offset="0" style="stop-color:#B4D334"/>
						<stop  offset="1" style="stop-color:#0F8C44"/>
					</linearGradient>
					<path class="st18" d="M1249.07,519.06c34.58,0,65.82,8.1,88.49,21.27c13.51,7.85,23.83,17.39,30.08,28.1
						c-5.95,9.03-15.69,17.04-28.04,23.29c-17.58,8.86-40.53,14.18-65.67,14.18v-72.4C1273.92,525.48,1262.88,519.06,1249.07,519.06
						z"/>
					
						<radialGradient id="SVGID_17_" cx="1308.3571" cy="245.3952" r="54.6973" gradientTransform="matrix(1 0 0 0.5808 0 405.4)" gradientUnits="userSpaceOnUse">
						<stop  offset="0" style="stop-color:#B4D334"/>
						<stop  offset="1" style="stop-color:#0F8C44"/>
					</radialGradient>
					<path class="st19" d="M1249.07,519.06c34.58,0,65.82,8.1,88.49,21.27c13.51,7.85,23.83,17.39,30.08,28.1
						c-1.89,2.87-4.22,5.65-6.82,8.35c-5.23-10.55-16.56-23.38-27.6-31.22c-18.89-13.5-46.06-23.12-77.73-25.99l0,0
						C1253.43,519.23,1251.25,519.06,1249.07,519.06z"/>
				</g>
			</g>
		</g>
		
			<linearGradient id="SVGID_18_" gradientUnits="userSpaceOnUse" x1="1040.9905" y1="82.1351" x2="894.2578" y2="228.8678" gradientTransform="matrix(1 0 0 1 0 322)">
			<stop  offset="0" style="stop-color:#B4D334"/>
			<stop  offset="1" style="stop-color:#0F8C44"/>
		</linearGradient>
		<path class="st20" d="M969.38,604.13c-109.27,0-198.18-51.65-198.18-115.1c0-63.46,88.92-115.1,198.18-115.1h87.46v70.12h-87.46
			c-42.71,0-77.45,20.17-77.45,44.98c0,24.81,34.72,44.98,77.45,44.98h87.46v70.12"/>
		
			<radialGradient id="SVGID_19_" cx="870.2893" cy="130.5775" r="96.2794" gradientTransform="matrix(1 0 0 0.5808 0 405.4)" gradientUnits="userSpaceOnUse">
			<stop  offset="0" style="stop-color:#B4D334"/>
			<stop  offset="1" style="stop-color:#0F8C44"/>
		</radialGradient>
		<path class="st21" d="M969.38,534.09c0,0-67.56,5.15-128.44-45.82c-14.97-12.57-34.87-40.67-38.21-61.26
			c-19.91,17.89-31.53,39.24-31.53,62.11c0,8.35,1.6,16.54,4.5,24.39C872.9,543.45,969.38,534.09,969.38,534.09z"/>
		
			<linearGradient id="SVGID_20_" gradientUnits="userSpaceOnUse" x1="920.6459" y1="125.295" x2="915.1822" y2="264.409" gradientTransform="matrix(1 0 0 1 0 322)">
			<stop  offset="0" style="stop-color:#0F8C44"/>
			<stop  offset="0.0311" style="stop-color:#419643"/>
			<stop  offset="0.0815" style="stop-color:#68A541"/>
			<stop  offset="0.1359" style="stop-color:#83B33E"/>
			<stop  offset="0.1948" style="stop-color:#98BF3A"/>
			<stop  offset="0.2605" style="stop-color:#A7C937"/>
			<stop  offset="0.3383" style="stop-color:#B1D035"/>
			<stop  offset="0.4592" style="stop-color:#B4D334"/>
			<stop  offset="0.5495" style="stop-color:#AFCF35"/>
			<stop  offset="0.6446" style="stop-color:#A2C539"/>
			<stop  offset="0.7421" style="stop-color:#8CB83C"/>
			<stop  offset="0.8411" style="stop-color:#6FA940"/>
			<stop  offset="0.9404" style="stop-color:#449743"/>
			<stop  offset="1" style="stop-color:#0F8C44"/>
		</linearGradient>
		<path class="st22" d="M1061.94,606.74v-71.31h-88.92c-89.8,0-165.92-34.26-191.94-81.43c-6.25,11.23-9.59,23.21-9.59,35.7
			c0,64.56,90.37,117.13,201.67,117.13"/>
		
			<linearGradient id="SVGID_21_" gradientUnits="userSpaceOnUse" x1="436.7242" y1="284.4082" x2="436.7242" y2="284.4082" gradientTransform="matrix(1 0 0 1 0 322)">
			<stop  offset="0" style="stop-color:#0F8C44"/>
			<stop  offset="0.0311" style="stop-color:#419643"/>
			<stop  offset="0.0815" style="stop-color:#68A541"/>
			<stop  offset="0.1359" style="stop-color:#83B33E"/>
			<stop  offset="0.1948" style="stop-color:#98BF3A"/>
			<stop  offset="0.2605" style="stop-color:#A7C937"/>
			<stop  offset="0.3383" style="stop-color:#B1D035"/>
			<stop  offset="0.4592" style="stop-color:#B4D334"/>
			<stop  offset="0.5495" style="stop-color:#AFCF35"/>
			<stop  offset="0.6446" style="stop-color:#A2C539"/>
			<stop  offset="0.7421" style="stop-color:#8CB83C"/>
			<stop  offset="0.8411" style="stop-color:#6FA940"/>
			<stop  offset="0.9404" style="stop-color:#449743"/>
			<stop  offset="1" style="stop-color:#0F8C44"/>
		</linearGradient>
		<path class="st23" d="M436.72,606.41"/>
		
			<linearGradient id="SVGID_22_" gradientUnits="userSpaceOnUse" x1="1518.9351" y1="255.7607" x2="1519.1125" y2="255.7607" gradientTransform="matrix(1 0 0 1 0 322)">
			<stop  offset="0" style="stop-color:#B4D334"/>
			<stop  offset="1" style="stop-color:#0F8C44"/>
		</linearGradient>
		<path class="st24" d="M1518.89,577.8l0.29-0.08L1518.89,577.8z"/>
		
			<linearGradient id="SVGID_23_" gradientUnits="userSpaceOnUse" x1="1568.4382" y1="193.6509" x2="1568.4382" y2="193.6509" gradientTransform="matrix(1 0 0 1 0 322)">
			<stop  offset="0" style="stop-color:#B4D334"/>
			<stop  offset="1" style="stop-color:#0F8C44"/>
		</linearGradient>
		<path class="st25" d="M1568.44,482.28v66.75c0-0.34,0-0.68,0-1.01V482.28L1568.44,482.28z"/>
	</g>
</g>
</svg>
