<?xml version="1.0" encoding="utf-8"?>
<!-- Generator: Adobe Illustrator 25.2.3, SVG Export Plug-In . SVG Version: 6.00 Build 0)  -->
<svg version="1.1" id="Layer_1" xmlns="http://www.w3.org/2000/svg" xmlns:xlink="http://www.w3.org/1999/xlink" x="0px" y="0px"
	 viewBox="0 0 1920 760" style="enable-background:new 0 0 1920 760;" xml:space="preserve">
<style type="text/css">
	.st0{fill:#00AEEF;}
	.st1{fill:#FFFFFF;stroke:#FFFFFF;stroke-miterlimit:10;}
	.st2{font-family:'ArialMT';}
	.st3{font-size:59.9041px;}
	.st4{fill:none;stroke:#FFFFFF;stroke-miterlimit:10;}
</style>
<g id="Layer_1_1_">
	<path class="st0" d="M1825.25,277.48h15.07l0,0c0,4.35-2.82,7.89-6.29,7.89h-0.98v17.27c0,4.76-3.14,8.71-6.94,8.71l0,0V285.5
		h-7.26l0,0C1818.96,281.02,1821.78,277.48,1825.25,277.48z"/>
	<path class="st0" d="M1856.69,295.3l4.34-16.46c0.22-0.82,0.76-1.36,1.41-1.36l0,0c4.77,0,8.56,4.76,8.56,10.75v14.83
		c0,4.49-2.93,8.16-6.5,8.16l0,0v-18.09l-4.23,16.05c-0.33,1.22-1.19,2.04-2.28,2.04h-3.14c-0.98,0-1.84-0.82-2.28-1.9l-4.55-15.64
		v17.55l0,0c-3.36,0-6.07-3.4-6.07-7.62v-15.23c0-5.98,3.9-10.88,8.67-10.88l0,0c0.54,0,1.08,0.41,1.19,1.09L1856.69,295.3z"/>
	<rect x="795.9" y="570.87" class="st0" width="1053.75" height="7.07"/>
	<g>
		<path class="st1" d="M173.3,301.15l-3.14,17.68c-8.56-14.28-22.77-22.44-42.06-22.44c-48.46,0-77.84,54-77.84,103.92
			c0,45.29,25.04,80.52,58.87,80.52c16.59,0,28.51-7.75,37.73-19.18l-2.39,14.42H181l22.77-134.11
			C176.66,337.46,173.3,301.15,173.3,301.15 M160.18,389.01c-2.6,27.34-18.65,47.61-39.46,47.61c-18.43,0-31.55-16.19-31.55-41.35
			c0-30.06,17.13-55.09,39.89-55.09C149.01,340.18,163,359.77,160.18,389.01"/>
		<path class="st1" d="M291.57,296.39c-13.98,0-28.08,5.44-39.68,23.12L254.6,304c-1.73,7.07-9.21,25.16-40.76,26.66L189.23,476.2
			h37.73l15.72-93.17c5.2-28.43,19.73-41.62,37.29-41.62c6.94,0,14.85,2.04,20.27,5.58l12.14-45.29
			C305.77,298.43,298.29,296.39,291.57,296.39"/>
		<path class="st1" d="M371.9,340.45c3.58,0,7.59,0.41,11.71,2.04c16.59,6.53,34.47,5.85,49.54-5.03h0.11
			c-11.49-26.39-31.66-40.81-59.41-40.81c-46.94,0-79.9,45.97-79.9,100.65c0,47.61,27.21,82.97,68.08,82.97
			c22.01,0,42.06-11.29,56.26-31.83l-0.22-0.27c-12.03-14.28-29.05-18.23-45.1-13.33c-3.14,0.95-6.18,1.36-9.43,1.36
			c-17.56,0-30.9-17.27-30.9-42.3C332.55,364.94,349.14,340.45,371.9,340.45"/>
		<path class="st1" d="M521.62,296.39c-13.55,0-26.89,4.9-38.05,19.59l15.5-92.49c0.65-3.54-3.14-5.85-4.88-2.86
			c-6.94,11.7-18.32,22.44-36.53,24.21L418.63,476.2c11.06,0,21.25-4.9,29.38-13.06s13.98-19.72,16.26-33.32l8.02-47.61
			c5.2-30.6,19.95-41.49,35.78-41.49c15.72,0,21.68,11.15,21.68,25.57c0,3.81-0.22,7.62-1.08,11.56l-16.8,98.2
			c11.06,0,21.14-4.76,29.27-12.92s13.98-19.72,16.26-33.19l9.54-55.9c1.08-6.53,1.52-13.06,1.52-19.04
			C568.56,320.73,550.78,296.39,521.62,296.39"/>
		<path class="st1" d="M594.47,314.2c-8.13,8.16-14.09,19.72-16.26,33.32L556.42,476.2c11.06,0,21.25-4.9,29.38-13.06
			s13.98-19.72,16.26-33.32l21.79-128.67C612.79,301.15,602.49,305.91,594.47,314.2"/>
		<path class="st1" d="M737.68,455.93c-9.54-15.1-25.15-22.17-40-17.41c-4.44,1.36-9,2.04-13.77,2.04
			c-14.85,0-25.26-7.62-29.6-21.49h-38.59c4.88,36.32,27.97,61.62,65.05,61.62C704.51,480.69,722.5,472.8,737.68,455.93
			 M694.75,296.39c-57.02,0-80.22,63.38-80.22,107.73v0.27h134.1c3.04-9.11,5.53-24.62,5.53-36.59
			C754.16,324.13,729.87,296.39,694.75,296.39 M717.95,372.01h-61.79c5.31-18.09,16.26-34.96,36.43-34.96
			C708.73,336.92,719.03,348.89,717.95,372.01L717.95,372.01"/>
		<path class="st0" d="M629.27,220.22l-8.89-7.34c-37.51-29.79-71.44-34.82-112.96-35.77c-41.74-1.22-81.96,9.11-120.01,25.03
			c-38.16,15.51-74.37,37.27-109.06,61.48c-17.35,12.11-34.04,25.98-50.41,39.72c-8.35,6.39-17.45,12.11-27.21,13.6
			c-4.88,0.54-9.76,0.27-14.2-1.9c-4.34-2.18-11.17-10.07-13.23-14.83l-1.19,8.3c6.83,11.43,18.97,11.97,28.84,10.07
			c9.87-2.31,19.19-7.48,27.64-14.01c16.7-13.47,33.82-25.98,51.49-37.27c35.12-22.99,72.31-40.4,110.36-52.37
			c38.05-11.15,77.51-15.91,114.91-8.03c18.65,3.67,36.53,11.02,53.01,20.95c11.49,7.21,18.97,15.51,29.05,25.98
			c4.23,4.35,7.81,9.79,12.47,13.47c4.99,3.81,9.21,6.53,14.85,6.53c14.09,0,24.83-14.01,23.96-31.83
			C638.05,232.73,634.91,225.38,629.27,220.22"/>
	</g>
	<text transform="matrix(0.797 0 0 1 52.3018 594.5488)" class="st1 st2 st3">GAMES AND ENTERTAINMENT</text>
	<g>
		<polygon class="st1" points="791.34,301.01 791.34,301.01 791.88,301.96 		"/>
	</g>
	<g>
		<path class="st1" d="M960.03,279.11L960.03,279.11v157.1c0,23.12-14.96,41.76-33.28,41.76l0,0v-157.1
			C926.75,297.75,941.6,279.11,960.03,279.11z"/>
		<path class="st1" d="M1079.39,395.68v43.12c0,21.63-13.98,39.17-31.22,39.17l0,0v-17.95c-6.18,13.19-18.1,20.13-35.02,20.13
			c-26.89,0-42.93-18.77-42.93-43.66c0-25.44,14.31-43.12,49.33-43.12H1046c0-19.86-10.41-30.47-32.41-28.02
			c-2.82,0.27-5.53,1.09-8.35,1.9c-12.14,3.67-24.72-3.13-30.46-17l-0.43-0.95c12.58-11.29,31.22-17.41,49.54-17.41
			C1059.12,331.61,1079.39,352.02,1079.39,395.68z M1046.11,432.4v-14.69h-22.87c-15.61,0-20.49,7.21-20.49,16.87
			c0,10.47,7.05,17.41,18.76,17.41C1032.66,451.99,1042.31,445.6,1046.11,432.4z"/>
		<path class="st1" d="M1208.29,333.79l-51.93,153.02c-11.06,34.82-26.89,45.29-47.59,45.29c-0.11,0-0.22,0-0.33,0
			c-16.91-0.14-27.64-22.99-19.95-41.89l0.43-1.09c5.1,5.58,12.14,9.11,18.76,9.11c9.21,0,14.31-5.03,18.76-17.95l0.43-1.36
			l-49.76-145.27l0,0c20.81,0,39.57,15.78,47.59,39.85l19.08,57.94l20.16-60.66C1171.32,348.34,1188.88,333.79,1208.29,333.79
			L1208.29,333.79z"/>
		<path class="st0" d="M1383.7,292.85c1.52,1.77,2.39,4.22,2.39,7.62c0,1.22-0.33,3.81-0.87,7.75l-12.79,71.82l-4.23,20.13
			c-1.3,6.26-3.47,10.47-6.61,12.79c-3.14,2.18-7.16,3.4-11.93,3.4l-90.2-0.27l-9.65,61.89h-44.01l9.87-61.89l3.58-20.13
			c1.08-6.26,3.36-10.47,6.72-12.79c3.36-2.18,7.59-3.4,12.68-3.4l89.98,0.27l7.91-42.3l-66.24-0.27l-3.47,18.23h-25.58
			c-4.01,0-6.72-0.68-8.24-1.9s-2.28-3.26-2.28-6.12c0-1.09,0.33-3.4,0.87-6.94l0.65-3.26h-0.22l8.78-47.2h134.54
			C1379.36,290.4,1382.18,291.22,1383.7,292.85z M1352.91,478.24l-93.56-0.27l7.26-45.57l94.86,0.27L1352.91,478.24z"/>
		<path class="st1" d="M1519.86,443.15L1519.86,443.15c0,19.18-12.47,34.82-27.75,34.82h-57.46c-16.91,0-30.57-17.14-30.57-38.36
			V319.24c0-15.91,10.3-28.84,22.98-28.84h62.34c15.29,0,27.75,15.64,27.75,34.82l0,0h-78.6v40.81h56.92
			c6.94,0,12.58,7.07,12.58,15.78v2.31c0,8.71-5.64,15.78-12.58,15.78h-56.92v43.39h81.31L1519.86,443.15L1519.86,443.15z"/>
		<path class="st1" d="M1632.71,395.68v43.12c0,21.63-13.98,39.17-31.22,39.17l0,0v-17.95c-6.18,13.19-18.1,20.13-35.02,20.13
			c-26.89,0-42.93-18.77-42.93-43.66c0-25.44,14.31-43.12,49.33-43.12h26.45c0-19.86-10.41-30.47-32.41-28.02
			c-2.82,0.27-5.53,1.09-8.35,1.9c-12.14,3.67-24.72-3.13-30.46-17l-0.43-0.95c12.58-11.29,31.22-17.41,49.54-17.41
			C1612.33,331.61,1632.71,352.02,1632.71,395.68z M1599.32,432.4v-14.69h-22.87c-15.61,0-20.49,7.21-20.49,16.87
			c0,10.47,7.05,17.41,18.76,17.41C1585.88,451.99,1595.53,445.6,1599.32,432.4z"/>
		<path class="st1" d="M1720.85,369.15v1.09c-2.82-0.27-4.88-0.54-7.48-0.54c-18.32,0-30.57,12.65-30.57,40.26v26.25
			c0,23.12-14.96,41.76-33.28,41.76l0,0V373.64c0-22.03,14.2-39.99,31.87-39.99l0,0v19.04c0.11-0.14,0.22-0.27,0.22-0.41
			C1694.18,331.34,1720.85,342.9,1720.85,369.15z"/>
		<path class="st1" d="M1844.98,395.41v82.56l0,0c-18.43,0-33.28-18.77-33.28-41.76v-34.28c0-23.26-8.56-34-23.31-34
			c-16.04,0-27.54,12.38-27.54,38.9v29.52c0,23.12-14.96,41.76-33.28,41.76l0,0V373.78c0-22.03,14.2-39.99,31.87-39.99l0,0v16.87
			c9-12.38,22.44-19.04,38.05-19.04C1824.49,331.61,1844.98,351.47,1844.98,395.41z"/>
	</g>
	<g>
		<path class="st4" d="M820.5,390.92h28.19c21.14,0,31.87-12.11,31.87-32.37c0-20.67-10.73-32.64-31.87-32.64h-25.04
			c-1.08,2.04-2.17,4.08-3.25,6.26v58.76h0.1V390.92z"/>
		<path class="st0" d="M835.57,290.4h-49.65v89.09C794.38,345.08,809.34,310.39,835.57,290.4z"/>
		<path class="st0" d="M851.29,290.4c-9,7.75-18.65,19.04-27.54,35.36h25.04c21.14,0,31.87,12.11,31.87,32.64
			c0,20.4-10.73,32.37-31.87,32.37H820.6v-58.9c-14.85,30.47-26.34,76.44-25.37,145.95h25.37v-51.69h30.14
			c39.89,0,64.94-25.98,64.94-67.87C915.58,316.52,890.86,290.67,851.29,290.4z"/>
		<path class="st1" d="M820.5,332.02c1.08-2.18,2.17-4.22,3.25-6.26h-3.25V332.02z"/>
		<path class="st1" d="M851.29,290.4c16.7-14.55,30.57-16.87,30.57-16.87c-18.43,1.09-33.61,7.21-46.29,16.87h15.07
			C850.86,290.4,851.08,290.4,851.29,290.4z"/>
		<path class="st1" d="M820.5,332.02v-6.26h3.25c8.78-16.32,18.54-27.61,27.54-35.36c-0.22,0-0.43,0-0.65,0h-15.07
			c-26.24,19.99-41.2,54.81-49.65,89.09v98.48h9.21C794.27,408.46,805.65,362.35,820.5,332.02z"/>
	</g>
</g>
</svg>
