<?xml version="1.0" encoding="utf-8"?>
<!-- Generator: Adobe Illustrator 25.2.3, SVG Export Plug-In . SVG Version: 6.00 Build 0)  -->
<svg version="1.1" id="Layer_1" xmlns="http://www.w3.org/2000/svg" xmlns:xlink="http://www.w3.org/1999/xlink" x="0px" y="0px"
	 viewBox="0 0 1920 760" style="enable-background:new 0 0 1920 760;" xml:space="preserve">
<style type="text/css">
	.st0{fill:#D7DF23;}
	.st1{fill:#FFFFFF;}
</style>
<g id="Layer_1_2_">
	<path class="st0" d="M1863.9,256.97h11.7l0,0c0,4.49-2.2,8.15-4.9,8.15h-0.7v17.63c0,4.82-2.4,8.82-5.3,8.82l0,0v-26.45h-5.6l0,0
		C1859.1,260.63,1861.3,256.97,1863.9,256.97z"/>
	<path class="st0" d="M1888.3,275.1l3.4-16.8c0.2-0.83,0.6-1.33,1.1-1.33l0,0c3.6,0,6.6,4.82,6.6,10.98v15.14
		c0,4.66-2.3,8.32-5,8.32l0,0v-18.46l-3.3,16.47c-0.2,1.33-1,2.16-1.7,2.16h-2.4c-0.8,0-1.5-0.83-1.7-2l-3.5-15.97v17.96l0,0
		c-2.6,0-4.7-3.49-4.7-7.82v-15.64c0-6.15,3-11.14,6.7-11.14l0,0c0.4,0,0.8,0.5,1,1.16L1888.3,275.1z"/>
	<g>
		<path class="st1" d="M135.5,321.84l-2.4,17.96c-6.6-14.64-17.5-22.95-32.4-22.95c-37.4,0-60.1,55.22-60.1,106.29
			c0,46.24,19.3,82.34,45.4,82.34c12.8,0,22-7.98,29.1-19.63l-1.9,14.8h28.2l17.5-137.23C138,359.1,135.5,321.84,135.5,321.84
			 M125.3,411.83c-2,27.94-14.4,48.74-30.4,48.74c-14.2,0-24.3-16.63-24.3-42.25c0-30.77,13.2-56.39,30.8-56.39
			C116.8,361.93,127.5,381.89,125.3,411.83"/>
		<path class="st1" d="M226.7,317.01c-10.8,0-21.7,5.49-30.6,23.62l2.1-15.97c-1.3,7.15-7.1,25.78-31.4,27.28l-19,148.87h29.1
			L189,405.5c4-29.11,15.2-42.58,28.8-42.58c5.4,0,11.4,2.16,15.6,5.82l9.4-46.41C237.7,319.18,231.9,317.01,226.7,317.01"/>
		<path class="st1" d="M288.7,362.09c2.8,0,5.8,0.5,9,2.16c12.8,6.82,26.6,5.99,38.2-5.16h0.1c-8.8-26.95-24.4-41.75-45.9-41.75
			c-36.2,0-61.6,46.91-61.6,102.96c0,48.57,21,84.83,52.5,84.83c17,0,32.4-11.64,43.4-32.44l-0.1-0.17
			c-9.3-14.64-22.4-18.63-34.8-13.64c-2.4,1-4.8,1.5-7.3,1.5c-13.6,0-23.9-17.63-23.9-43.25C258.3,387.21,271.1,362.09,288.7,362.09
			"/>
		<path class="st1" d="M404.2,317.01c-10.4,0-20.7,4.99-29.4,19.96l12-94.65c0.5-3.66-2.4-5.99-3.8-2.99
			c-5.4,11.98-14.1,22.95-28.2,24.78l-30.1,236.7c8.5,0,16.4-4.99,22.7-13.31c6.2-8.48,10.8-20.29,12.6-34.1l6.2-48.57
			c4-31.27,15.4-42.42,27.6-42.42s16.7,11.31,16.7,26.28c0,3.83-0.2,7.82-0.8,11.81l-13,100.47c8.5,0,16.3-4.82,22.6-13.31
			c6.2-8.32,10.8-20.13,12.6-33.93l7.4-57.22c0.9-6.82,1.2-13.31,1.2-19.46C440.4,341.97,426.7,317.01,404.2,317.01"/>
		<path class="st1" d="M460.4,335.31c-6.2,8.32-10.8,20.29-12.6,34.1L431,500.99c8.5,0,16.4-4.99,22.7-13.31
			c6.3-8.48,10.8-20.29,12.6-34.1L483.1,322C474.5,321.84,466.6,326.83,460.4,335.31"/>
		<path class="st1" d="M570.8,480.36c-7.3-15.47-19.4-22.62-30.9-17.8c-3.4,1.5-6.9,2.16-10.6,2.16c-11.4,0-19.5-7.82-22.9-21.96
			h-29.8c3.8,37.09,21.6,63.04,50.2,63.04C545.3,505.64,559.2,497.49,570.8,480.36 M537.7,317.01c-44,0-61.9,64.87-61.9,110.12v0.17
			h103.5c2.3-9.31,4.3-25.28,4.3-37.43C583.6,345.46,564.9,317.01,537.7,317.01 M555.6,394.36h-47.7
			c4.1-18.46,12.6-35.76,28.1-35.76C548.5,358.6,556.5,370.74,555.6,394.36L555.6,394.36"/>
		<path class="st0" d="M487.2,239.17l-6.8-7.49c-29-30.44-55.1-35.6-87.2-36.59c-32.2-1.16-63.2,9.31-92.6,25.62
			c-29.5,15.97-57.3,38.09-84.1,62.88c-13.4,12.31-26.2,26.45-38.9,40.75c-6.5,6.49-13.4,12.48-21,13.81c-3.7,0.67-7.5,0.33-11-2
			c-3.4-2.16-8.6-10.31-10.2-15.14l-0.9,8.48c5.3,11.64,14.7,12.31,22.2,10.31c7.6-2.33,14.8-7.65,21.3-14.31
			c12.9-13.81,26.1-26.61,39.7-38.09c27.1-23.45,55.8-41.42,85.1-53.56c29.4-11.31,59.8-16.3,88.7-8.32
			c14.4,3.66,28.2,11.31,40.9,21.46c8.9,7.32,14.7,15.97,22.4,26.45c3.3,4.49,6,9.98,9.6,13.64c3.9,3.99,7.1,6.65,11.4,6.65
			c10.8,0,19.1-14.31,18.5-32.6C494,251.98,491.6,244.49,487.2,239.17"/>
	</g>
	<g>
		<path class="st1" d="M745.7,385.88h33.2c14.5,0,26.2,19.46,26.2,43.58l0,0h-33.2C757.5,429.46,745.7,410,745.7,385.88
			L745.7,385.88z"/>
		<path class="st1" d="M814.5,411.99c0-56.56,26.2-96.64,63-96.64c23.7,0,42.4,17.13,50.6,47.91l-1.3,1.16
			c-11.3,10.15-25,10.81-36.3,0.83c-4-3.49-8.5-5.16-13.2-5.16c-16.6,0-29.6,19.13-29.6,52.06c0,32.77,13,52.06,29.6,52.06
			c4.3,0,8.4-1.33,12.1-4.16c12.4-9.48,26.7-9.48,38.6,1.33h0.1c-8.2,29.94-26.9,47.41-50.6,47.41
			C840.8,508.64,814.5,468.55,814.5,411.99z"/>
		<path class="st1" d="M925.3,411.99c0-56.56,26.2-96.64,62.1-96.64s61.9,40.09,61.9,96.64s-26,96.64-61.9,96.64
			C951.6,508.64,925.3,468.55,925.3,411.99z M1016.2,411.99c0-32.44-12.4-52.06-28.8-52.06s-29,19.63-29,52.06s12.6,52.06,29,52.06
			C1003.8,464.06,1016.2,444.43,1016.2,411.99z"/>
		<path class="st1" d="M1246.8,398.35v53.06c0,30.11-14.7,54.39-32.7,54.39l0,0v-99.14c0-30.44-8.2-44.41-21.4-44.41
			c-14.7,0-25,15.64-25,49.24v67.03c0,14.97-7.3,27.28-16.4,27.28l0,0c-9,0-16.4-12.14-16.4-27.28v-71.86
			c0-30.44-7.8-44.41-21.4-44.41c-14.5,0-24.8,15.64-24.8,49.24v94.31l0,0c-18.1,0-32.7-24.45-32.7-54.39v-81.34
			c0-28.78,14-52.06,31.3-52.06l0,0v21.62c8.4-16.13,21-24.45,35.5-24.45c15.7,0,29.2,10.15,37.1,30.77
			c9-19.13,23.7-30.77,40.7-30.77C1227.5,315.35,1246.8,341.13,1246.8,398.35z"/>
		<path class="st1" d="M1443.4,398.35v53.06c0,30.11-14.7,54.39-32.7,54.39l0,0v-99.14c0-30.44-8.2-44.41-21.4-44.41
			c-14.7,0-25,15.64-25,49.24v67.03c0,14.97-7.3,27.28-16.4,27.28l0,0c-9,0-16.4-12.14-16.4-27.28v-71.86
			c0-30.44-7.8-44.41-21.4-44.41c-14.5,0-24.8,15.64-24.8,49.24v94.31l0,0c-18.1,0-32.7-24.45-32.7-54.39v-81.34
			c0-28.78,14-52.06,31.3-52.06l0,0v21.62c8.4-16.13,21-24.45,35.5-24.45c15.7,0,29.2,10.15,37.1,30.77
			c9-19.13,23.7-30.77,40.7-30.77C1424.1,315.35,1443.4,341.13,1443.4,398.35z"/>
		<path class="st1" d="M1569.8,427.3h-85.4c3.1,23.45,15.1,37.76,32.3,37.76c4.7,0,8.9-1,12.8-2.83c11.6-5.66,24.1,0,32.3,14.8
			l0.7,1.16c-10.5,19.96-26.2,30.44-46.6,30.44c-39,0-64.4-40.92-64.4-96.64c0-56.22,25.8-96.64,60.2-96.64
			c33.2,0,58.8,36.93,58.8,97.31C1570.5,416.98,1570,422.81,1569.8,427.3z M1484,395.69h55.6c-2.3-23.79-13-39.09-27.7-39.09
			C1497,356.44,1486.3,371.57,1484,395.69z"/>
		<path class="st1" d="M1647,364.09v1.5c-2.7-0.33-4.8-0.67-7.3-0.67c-18,0-30,16.47-30,52.4v34.27c0,30.11-14.7,54.39-32.7,54.39
			l0,0V370.24c0-28.78,14-52.06,31.3-52.06l0,0v24.78c0.1-0.17,0.2-0.33,0.2-0.5C1620.7,315.02,1647,329.82,1647,364.09z"/>
		<path class="st1" d="M1648.9,411.99c0-56.56,26.2-96.64,63-96.64c23.7,0,42.4,17.13,50.6,47.91l-2.9,2.66
			c-10.9,9.65-23.8,9.15-34.7-0.5c-4-3.49-8.5-5.16-13.2-5.16c-16.6,0-29.6,19.13-29.6,52.06c0,32.77,13,52.06,29.6,52.06
			c4.7,0,9.2-1.66,13.2-5.16c11-9.48,24-9.98,34.9-0.17l2.8,2.5c-8.2,29.94-26.9,47.41-50.6,47.41
			C1675.2,508.64,1648.9,468.55,1648.9,411.99z"/>
		<path class="st1" d="M1882.3,427.3h-85.4c3.1,23.45,15.1,37.76,32.3,37.76c4.5,0,8.5-0.83,12.2-2.5c12-5.49,24.9,0,33.3,15.3
			l0.3,0.5c-10.5,19.96-26.2,30.44-46.6,30.44c-39,0-64.4-40.92-64.4-96.64c0-56.22,25.8-96.64,60.2-96.64
			c33.2,0,58.8,36.93,58.8,97.31C1882.9,416.98,1882.5,422.81,1882.3,427.3z M1796.4,395.69h55.6c-2.3-23.79-13-39.09-27.7-39.09
			C1809.5,356.44,1798.8,371.57,1796.4,395.69z"/>
	</g>
	<g>
		<path class="st0" d="M658.8,578c-4.5-1.66-8.6-4.32-12.4-7.32c-28.8-22.79-46.9-60.21-52.2-112.61
			c-5.4-53.73,4.6-100.14,28.8-137.06c15.4-23.62,33.8-36.43,54.8-38.09c19.8-1.66,39.6-0.33,59.3-0.67c5.9-0.17,11.7,0,17.6,0
			c3.1,0,3.2,0.33,2.8,5.82c-1.3,16.97-7.3,27.61-16.7,33.43c-4.8,2.99-9.9,4.49-15.1,4.49c-12.8,0-25.7-0.83-38.5,0.33
			c-30,2.5-52.3,26.45-66.8,70.19c-5.7,17.13-8.7,35.93-8.8,55.56c-0.4,56.22,14.8,96.98,44.5,123.09C657,575.84,658,576,658.8,578z
			"/>
		<path class="st0" d="M685.9,504.15c-15.5,0-30.9,0-46.4,0c-3.3,0-3.3-0.17-2.7-5.16c5.7-45.08,11.5-89.99,17.2-135.07
			c0.3-2.33,0.9-3.99,2.3-5.16c9.1-7.65,18.9-11.81,29-13.64c1.7-0.33,2.5,0.17,2,3.49c-1.2,8.15-2.1,16.47-3.3,24.62
			c-0.5,3.49-0.2,4.49,2.2,4.49c14.3-0.17,28.6-0.17,42.8-0.17c3.5,0,3.5,0,2.8,5.66c-1.1,8.82-2.3,17.63-3.3,26.45
			c-0.4,3.16-1.1,4.16-3,3.99c-14.5-0.17-29.1,0-43.6-0.17c-2.3,0-3.1,1-3.5,4.66c-1.4,12.48-3,24.95-4.7,37.43
			c-0.5,3.66,0.2,3.83,2,3.83c12.3-0.17,24.6,0,36.9,0c2.7,0,5.4,0.33,8,1.5c8.2,3.66,13.5,14.97,14.5,30.94
			c0.2,2.5,0.3,5.16,0.5,7.65c0.3,3.49-0.4,4.66-2.6,4.66C717.2,503.98,701.6,504.15,685.9,504.15z"/>
	</g>
</g>
</svg>
