<?xml version="1.0" encoding="utf-8"?>
<!-- Generator: Adobe Illustrator 25.2.3, SVG Export Plug-In . SVG Version: 6.00 Build 0)  -->
<svg version="1.1" id="Layer_1" xmlns="http://www.w3.org/2000/svg" xmlns:xlink="http://www.w3.org/1999/xlink" x="0px" y="0px"
	 viewBox="0 0 1920 760" style="enable-background:new 0 0 1920 760;" xml:space="preserve">
<style type="text/css">
	.st0{fill:#FFFFFF;}
	.st1{fill:#7F3F98;}
	.st2{font-family:'ArialMT';}
	.st3{font-size:71.4769px;}
	.st4{letter-spacing:-2.73;}
</style>
<g id="Layer_1_1_">
	<g>
		<path class="st0" d="M195.17,296.29l-3.65,14.97c-9.99-12.09-26.56-18.96-49.09-18.96c-56.52,0-90.99,45.79-90.99,88.03
			c0,38.36,29.23,68.19,68.7,68.19c19.37,0,33.25-6.54,44.1-16.19l-2.8,12.31h42.63l26.56-113.64
			C198.95,327.11,195.17,296.29,195.17,296.29 M179.83,370.68c-3.05,23.17-21.8,40.36-46.05,40.36c-21.56,0-36.79-13.75-36.79-34.92
			c0-25.5,19.98-46.68,46.53-46.68C166.79,329.44,183.11,345.96,179.83,370.68"/>
		<path class="st0" d="M333.31,292.18c-16.32,0-32.77,4.55-46.41,19.62l3.17-13.19c-2.07,5.99-10.72,21.29-47.63,22.62
			l-28.75,123.29h44.1l18.27-78.94c6.09-24.06,23.02-35.26,43.61-35.26c8.16,0,17.3,1.77,23.63,4.77l14.13-38.36
			C349.88,293.96,341.11,292.18,333.31,292.18"/>
		<path class="st0" d="M426.98,329.55c4.26,0,8.89,0.33,13.64,1.77c19.37,5.54,40.2,4.99,57.86-4.21h0.12
			c-13.4-22.4-36.91-34.59-69.43-34.59c-54.82,0-93.31,38.92-93.31,85.26c0,40.25,31.79,70.18,79.42,70.18
			c25.7,0,49.09-9.65,65.66-26.94l-0.24-0.22c-14.13-12.09-33.86-15.41-52.74-11.31c-3.65,0.78-7.19,1.22-11.08,1.22
			c-20.46,0-36.06-14.64-36.06-35.81C381.06,350.39,400.43,329.55,426.98,329.55"/>
		<path class="st0" d="M601.91,292.18c-15.84,0-31.43,4.1-44.46,16.52l18.15-78.39c0.73-2.99-3.65-4.99-5.73-2.44
			c-8.16,9.87-21.32,19.07-42.63,20.51l-45.56,196.02c12.91,0,24.85-4.1,34.35-11.09c9.5-6.98,16.32-16.74,19-28.16l9.38-40.25
			c6.09-25.94,23.39-35.15,41.78-35.15c18.39,0,25.34,9.42,25.34,21.73c0,3.22-0.24,6.43-1.22,9.76l-19.61,83.26
			c12.91,0,24.73-3.99,34.23-10.98c9.5-6.98,16.32-16.63,19-28.16l11.21-47.34c1.34-5.54,1.83-11.09,1.83-16.08
			C656.72,312.92,635.89,292.18,601.91,292.18"/>
		<path class="st0" d="M686.81,307.37c-9.5,6.98-16.44,16.74-19,28.16l-25.46,108.99c12.91,0,24.85-4.1,34.35-11.09
			c9.5-6.98,16.32-16.74,19-28.16l25.46-108.99C708.25,296.29,696.31,300.39,686.81,307.37"/>
		<path class="st0" d="M854.06,427.45c-11.08-12.86-29.36-18.74-46.78-14.75c-5.12,1.22-10.48,1.77-16.08,1.77
			c-17.3,0-29.48-6.43-34.59-18.18h-45.07c5.73,30.71,32.65,52.22,76.01,52.22C815.32,448.4,836.39,441.75,854.06,427.45
			 M803.99,292.18c-66.63,0-93.67,53.77-93.67,91.25v0.22h156.65c3.53-7.65,6.46-20.84,6.46-30.93
			C873.43,315.69,845.04,292.18,803.99,292.18 M831.03,356.27h-72.11c6.21-15.3,19-29.71,42.51-29.71
			C820.32,326.66,832.25,336.75,831.03,356.27L831.03,356.27"/>
		<path class="st1" d="M727.49,227.77l-10.35-6.21c-43.85-25.28-83.44-29.49-131.92-30.38c-48.72-1-95.74,7.76-140.08,21.18
			c-44.58,13.19-86.85,31.6-127.29,52.11c-20.34,10.31-39.71,21.95-58.96,33.71c-9.74,5.43-20.34,10.31-31.79,11.53
			c-5.6,0.44-11.45,0.22-16.69-1.55c-5.12-1.77-13.03-8.54-15.47-12.64l-1.34,7.1c7.92,9.65,22.17,10.2,33.62,8.54
			c11.57-1.88,22.29-6.32,32.28-11.86c19.49-11.42,39.47-22.06,60.05-31.6c40.93-19.4,84.42-34.26,128.88-44.35
			c44.46-9.42,90.51-13.53,134.24-6.87c21.8,3.1,42.76,9.31,61.88,17.74c13.4,6.1,22.17,13.19,33.86,21.95
			c4.87,3.66,9.14,8.32,14.5,11.42c5.85,3.33,10.72,5.54,17.3,5.54c16.44,0,28.99-11.86,28.02-27.05
			C737.73,238.3,734.07,232.2,727.49,227.77"/>
	</g>
	<g>
		<path class="st1" d="M1806.51,231.43h-14.37l0,0c0-4.32,3.78-7.76,8.53-7.76h30.82l0,0c0,4.32-3.78,7.76-8.53,7.76h-5.97v33.26
			l0,0c-5.73,0-10.48-4.21-10.48-9.53V231.43z"/>
		<path class="st1" d="M1878.01,264.69l-0.12-24.61l-12.06,18.4c-0.73,1.11-2.07,1.88-3.53,1.88l0,0c-1.46,0-2.8-0.67-3.53-1.77
			l-11.94-17.96v24.06l0,0c-5.36,0-9.74-3.99-9.74-8.87v-29.6c0-1.44,1.22-2.55,2.8-2.55h4.26c0.97,0,1.83,0.44,2.44,1.22
			l16.08,24.28l15.84-24.28c0.49-0.78,1.46-1.22,2.44-1.22h4.14c1.58,0,2.8,1.11,2.8,2.55l0.12,29.6
			C1887.76,260.7,1883.37,264.69,1878.01,264.69L1878.01,264.69z"/>
	</g>
	<g>
		<path class="st0" d="M1260.18,380.1h-127.9c4.75,19.18,22.66,30.93,48.36,30.93c6.82,0,12.91-0.67,18.52-2.11
			c18.03-4.66,37.27,0.44,50.06,12.97l0,0c-15.71,16.3-39.22,24.84-69.8,24.84c-58.47,0-96.48-33.48-96.48-79.16
			c0-46.01,38.61-79.16,90.14-79.16c49.7,0,87.95,30.27,87.95,79.83C1261.15,371.57,1260.54,376.45,1260.18,380.1z M1131.67,354.16
			h83.2c-3.41-19.4-19.49-32.04-41.42-32.04C1151.16,322.12,1135.2,334.43,1131.67,354.16z"/>
		<path class="st0" d="M1422.56,356.71v46.01c0,23.06-20.59,41.8-45.92,41.8l0,0v-19.18c-9.14,13.97-26.68,21.4-51.53,21.4
			c-39.59,0-63.1-20.07-63.1-46.57c0-27.16,21.07-46.01,72.6-46.01h38.98c0-19.18-12.55-30.27-38.98-30.27
			c-6.82,0-13.76,0.78-20.46,2.33c-18.27,4.1-37.27-3.88-45.8-19.18l0,0c18.52-11.97,45.92-18.63,72.84-18.63
			C1392.71,288.3,1422.56,310.03,1422.56,356.71z M1373.46,395.85V380.1h-33.62c-22.9,0-30.21,7.76-30.21,17.96
			c0,11.2,10.35,18.63,27.65,18.63C1353.73,416.69,1367.86,409.93,1373.46,395.85z"/>
		<path class="st0" d="M1436.81,232.31L1436.81,232.31c27.04,0,48.97,19.96,48.97,44.57v167.53l0,0
			c-27.04,0-48.97-19.96-48.97-44.57V232.31z"/>
		<path class="st0" d="M1613.92,409.38c7.55,17.85-6.82,37.25-27.9,37.36c-0.12,0-0.24,0-0.49,0c-39.95,0-63.1-18.63-63.1-55.21
			v-63.2l0,0c-14.37,0-26.07-10.64-26.07-23.73v-10.53h26.07l0,0c0-20.73,18.39-37.47,41.17-37.47h7.8v37.47h4.39
			c20.83,0,37.76,15.41,37.76,34.37l0,0h-42.15v62.64c0,13.19,7.8,20.29,21.07,20.29c7.19,0,14.5-2,19.73-5.77L1613.92,409.38z"/>
		<path class="st0" d="M1808.58,290.63l-76.38,163.31c-16.32,37.14-39.59,48.34-70.04,48.34c-17.3,0-36.18-5.1-47.14-13.97l0,0
			c8.28-14.64,25.34-23.06,43.37-22.06c0.73,0,1.46,0.11,2.19,0.11c13.52,0,21.07-5.43,27.65-19.18l0.61-1.44l-73.21-155l0,0
			c30.57,0,58.23,16.74,69.92,42.57l28.14,61.87l29.6-64.97C1754.25,306.26,1779.95,290.63,1808.58,290.63L1808.58,290.63z"/>
	</g>
	<g>
		<path class="st1" d="M982.2,283.31c31.06,0,46.78,12.86,46.78,34.92c0,10.09-3.41,18.29-9.99,24.17c-2.8,2.55-3.05,6.54-0.37,9.09
			l1.83,1.77l0,0c16.69,16.63,47.26,11.53,55.55-9.76c3.05-7.65,4.63-16.08,4.63-25.28c0-44.9-36.79-72.62-95.5-72.62H947
			c-7.92,0-15.47,1.44-22.29,4.1c-3.53,1.33-4.39,5.43-1.83,7.98l21.44,20.95c3.05,2.99,7.43,4.77,11.94,4.77h25.95V283.31z"/>
		<path class="st1" d="M1090.13,444.52h-1.95c-33.01,0-63.95-14.75-82.71-39.47l-12.42-16.3h-2.56h-44.34v9.42
			c0,25.61-22.78,46.34-50.92,46.34l0,0V296.17c0-9.76,2.92-18.85,8.16-26.72c1.34-2,4.39-2.44,6.33-0.89l29.84,24.06
			c4.14,3.33,6.58,8.09,6.58,13.19v45.9h41.42c5.24,0,9.99-0.33,14.25-1.11c2.31-0.44,4.75,0.33,6.33,2.11L1090.13,444.52z"/>
	</g>
	<text transform="matrix(1.0987 0 0 1 63.5566 554.791)" class="st0 st2 st3 st4">Next generation living </text>
	<rect x="933.11" y="534.77" class="st1" width="875.95" height="9.76"/>
</g>
</svg>
