<?xml version="1.0" encoding="utf-8"?>
<!-- Generator: Adobe Illustrator 25.2.3, SVG Export Plug-In . SVG Version: 6.00 Build 0)  -->
<svg version="1.1" id="Layer_1" xmlns="http://www.w3.org/2000/svg" xmlns:xlink="http://www.w3.org/1999/xlink" x="0px" y="0px"
	 viewBox="0 0 1920 760" style="enable-background:new 0 0 1920 760;" xml:space="preserve">
<style type="text/css">
	.st0{fill:#FFFFFF;}
	.st1{fill:#14A701;}
</style>
<g id="Layer_1_1_">
	<g>
		<path class="st0" d="M157.55,333.2l-2.98,19.26c-8.3-15.65-22.12-24.53-40.85-24.53C66.72,327.92,38,387.23,38,441.87
			c0,49.67,24.36,88.35,57.22,88.35c16.06,0,27.76-8.58,36.7-20.92l-2.34,15.81h35.52l22.12-147.05
			C160.74,373.08,157.55,333.2,157.55,333.2 M144.79,429.52c-2.55,29.95-18.19,52.23-38.4,52.23c-17.87,0-30.64-17.76-30.64-45.3
			c0-32.97,16.7-60.51,38.72-60.51C133.94,376.09,147.56,397.47,144.79,429.52"/>
		<path class="st0" d="M272.54,327.92c-13.61,0-27.34,5.87-38.61,25.29l2.66-17.01c-1.7,7.68-8.94,27.54-39.57,29.2l-23.94,159.56
			h36.7l15.21-102.2c5-31.16,19.15-45.61,36.27-45.61c6.81,0,14.36,2.26,19.67,6.17l11.81-49.67
			C286.37,330.19,279.13,327.92,272.54,327.92"/>
		<path class="st0" d="M350.62,376.39c3.51,0,7.34,0.46,11.39,2.26c16.06,7.22,33.51,6.47,48.18-5.41h0.11
			c-11.17-28.9-30.74-44.86-57.76-44.86c-45.63,0-77.65,50.43-77.65,110.33c0,52.07,26.49,90.91,66.16,90.91
			c21.49,0,40.85-12.49,54.67-34.77l-0.21-0.3c-11.7-15.65-28.19-19.86-43.93-14.59c-2.98,1.06-6.06,1.5-9.25,1.5
			c-17.12,0-30.1-18.96-30.1-46.36C312.32,403.19,328.49,376.39,350.62,376.39"/>
		<path class="st0" d="M496.12,327.92c-13.19,0-26.16,5.27-37.01,21.53L474.21,248c0.54-3.91-2.98-6.47-4.79-3.17
			c-6.81,12.79-17.76,24.69-35.52,26.5l-37.97,253.78c10.75,0,20.64-5.27,28.51-14.29c7.87-9.04,13.61-21.67,15.85-36.42l7.76-52.07
			c5-33.57,19.46-45.46,34.78-45.46c15.32,0,21.06,12.19,21.06,28.14c0,4.21-0.21,8.28-0.96,12.65l-16.39,107.77
			c10.75,0,20.64-5.27,28.51-14.15c7.87-9.04,13.61-21.53,15.85-36.42l9.25-61.27c1.06-7.22,1.49-14.29,1.49-20.92
			C541.75,354.72,524.42,327.92,496.12,327.92"/>
		<path class="st0" d="M566.85,347.49c-7.87,9.04-13.61,21.67-15.85,36.42l-21.16,141.04c10.75,0,20.64-5.27,28.51-14.29
			c7.87-9.04,13.61-21.67,15.85-36.42l21.16-141.04C584.73,333.2,574.73,338.47,566.85,347.49"/>
		<path class="st0" d="M706.09,502.98c-9.25-16.56-24.46-24.23-38.93-19.12c-4.25,1.5-8.72,2.26-13.4,2.26
			c-14.36,0-24.57-8.28-28.82-23.63h-37.55c4.79,39.89,27.23,67.58,63.18,67.58C673.86,530.08,691.31,521.5,706.09,502.98
			 M664.4,327.92c-55.42,0-77.97,69.55-77.97,118.01v0.3h130.4c2.98-9.94,5.32-26.94,5.32-40.04
			C722.15,358.49,698.54,327.92,664.4,327.92 M686.94,410.86h-59.99c5.21-19.72,15.85-38.38,35.42-38.38
			C677.91,372.48,688.01,385.57,686.94,410.86L686.94,410.86"/>
		<path class="st1" d="M600.69,244.53l-8.61-8.13c-36.48-32.67-69.46-38.24-109.88-39.28c-40.52-1.36-79.67,9.94-116.68,27.4
			c-37.12,17.01-72.22,40.79-106.04,67.43c-16.91,13.25-33.08,28.44-49.03,43.65c-8.19,6.92-16.91,13.25-26.37,14.89
			c-4.68,0.6-9.46,0.3-13.82-2.11c-4.25-2.41-10.85-11.14-12.87-16.26l-1.06,9.18c6.6,12.49,18.51,13.25,27.97,10.98
			c9.68-2.41,18.61-8.13,26.81-15.35c16.27-14.75,32.87-28.44,50-40.79c34.15-25.13,70.31-44.4,107.22-57.34
			c37.01-12.19,75.42-17.46,111.68-8.88c18.19,3.91,35.52,12.04,51.48,22.89c11.17,7.83,18.51,17.01,28.19,28.44
			c4.15,4.81,7.55,10.84,12.12,14.75c4.89,4.21,8.94,7.22,14.46,7.22c13.61,0,24.15-15.35,23.3-34.92
			C609.3,258.24,606.21,250.26,600.69,244.53"/>
	</g>
	<g>
		<path class="st0" d="M1833.69,225.42h-8.94v-7.38H1849v7.38h-8.94v32.07h-6.49v-32.07H1833.69z"/>
		<path class="st0" d="M1877.83,257.33V233.7l-8.19,19.42h-2.87l-8.19-18.96v23.19h-6.06v-39.46h5.32l10.42,24.53l10.31-24.53h5.31
			l0.11,39.44H1877.83L1877.83,257.33z"/>
	</g>
	<g>
		<path class="st1" d="M1565.01,322.96v66.68h82.43l0,0c0,25.89-14.79,46.82-33.08,46.82H1565v91.82l0,0
			c-22.76,0-41.27-26.19-41.27-58.4V320.85c0-24.69,14.15-44.86,31.7-44.86h102.97l0,0c0,25.89-14.79,46.82-33.08,46.82H1565v0.14
			H1565.01z"/>
		<path class="st1" d="M1726.26,323.71h-23.4c-18.51,0-33.61-21.22-33.61-47.56l0,0h121.68c18.51,0,33.61,21.22,33.61,47.56l0,0
			h-57.01v146.31c0,32.21-18.51,58.4-41.27,58.4l0,0V323.71z"/>
	</g>
	<g>
		<path class="st1" d="M1467.79,265.15v153.08l-43.61-75.4l30.95,102.36l14.15,55.54c11.49,10.68,25.1,16.56,39.25,16.56l0,0V322.81
			C1508.53,290.9,1490.23,265.15,1467.79,265.15z"/>
		<path class="st1" d="M1403.65,298.28c-0.43-2.71-1.6-5.11-3.3-6.62c-11.27-9.94-24.36-15.35-37.97-15.35l0,0v194.47
			c0,31.77,18.19,57.64,40.74,57.64V375.34l50.63,87.3c-20.31-67.13-45.95-151.58-49.46-161.51c-0.32-0.76-0.54-1.66-0.64-2.56
			V298.28z"/>
	</g>
	<path class="st0" d="M1116.03,444.73h-103.92c1.28,26.04,12.55,39.28,35,39.28c5.1,0,10-0.9,14.79-2.56
		c14.57-5.11,29.89,3.47,37.87,21.37l0,0c-15.64,17.76-36.06,25.74-56.7,25.74c-42.33,0-69.35-33.87-69.35-85.94
		c0-64.28,32.76-111.68,79.88-111.68c39.57,0,64.57,33.11,64.57,84.6C1118.26,425.91,1117.3,435.85,1116.03,444.73z M1014.87,412.37
		h67.33c0-25.29-12.12-39.59-30.21-39.59C1033.06,372.78,1020.2,388.43,1014.87,412.37z"/>
	<path class="st0" d="M1167.09,457.98c-0.54,2.86-0.54,5.41-0.54,7.83c0,11.74,4.57,18.52,14.36,18.52c5.31,0,10.85-2.56,15.85-6.77
		l0.32,1.96c3.72,25.13-9.79,48.92-27.87,49.07c-0.11,0-0.21,0-0.32,0c-25.21,0-42.33-20.02-42.33-53.43
		c0-5.41,0.54-10.98,1.28-16.71l10.85-77.37h-20.95l1.91-13.69c2.34-16.86,12.87-29.04,25-29.04l0,0l0,0
		c3.83-27.1,20.64-46.66,40.21-46.66h5.64l-6.6,46.66h33.82l0,0c-3.51,24.83-18.94,42.75-36.91,42.75h-2.98L1167.09,457.98z"/>
	<path class="st0" d="M1350.25,388.43l-12.02,85.5c-4.25,30.1-22.87,51.77-44.57,51.77l0,0l2.55-18.96
		c-10.85,13.85-25,21.83-41.59,21.83c-31.49,0-58.5-31.46-58.5-85.94c0-64.58,32.97-111.68,74.88-111.68
		c19.67,0,35.31,8.88,44.15,28.9l3.51-26.04l0,0C1338.87,333.8,1354.19,360.13,1350.25,388.43z M1306.43,419.44
		c0-26.04-11.39-42.45-30.95-42.45c-23.19,0-39.78,25.74-39.78,63.07c0,26.04,11.39,42.45,30.95,42.45
		C1289.83,482.51,1306.43,456.92,1306.43,419.44z"/>
	<g>
		<path class="st1" d="M924.68,330.93c-7.34,0-14.36,1.36-20.85,4.07l-73.82,158.64c3.4,18.06,15.1,32.07,29.46,32.07h2.24
			l13.82-98.43c4.79-33.11,17.45-48.16,35.52-48.16c14.15,0,21.37,10.38,21.37,29.65c0,4.67-0.21,9.34-0.96,14.59l-14.36,102.36
			c22.87,0,42.55-22.89,46.91-54.64l7.24-51.77c1.28-8.58,1.81-16.11,1.81-23.49C973.07,353.52,953.61,330.93,924.68,330.93z"/>
		<path class="st1" d="M809.37,513.22l98.39-203.95c-6.91,8.44-38.61,58.85-44.15,67.43c-7.55-20.62-22.97-31.46-41.59-31.46
			c-15.85,0-30.74,7.52-42.55,22.89l2.98-20.02c-21.7,0-40.31,21.67-44.57,51.77l-12.02,85.5c-3.94,28.3,11.27,54.64,31.7,54.64l0,0
			l13.61-97.69c5-33.87,17.45-48.92,35.85-48.92c14.15,0,21.37,10.38,21.37,29.95c0,4.21-0.21,8.88-0.96,14.29"/>
	</g>
</g>
</svg>
